<svg width="24" height="24" viewBox="0 0 24 24" fill="none" xmlns="http://www.w3.org/2000/svg">
<path d="M20.4999 20.5C20.3141 20.686 20.0936 20.8335 19.8508 20.9341C19.608 21.0348 19.3477 21.0866 19.0849 21.0866C18.8221 21.0866 18.5618 21.0348 18.319 20.9341C18.0762 20.8335 17.8556 20.686 17.6699 20.5L12.4599 15.29C11.0836 15.9902 9.50508 16.1849 7.99989 15.84C6.66586 15.5292 5.46412 14.8049 4.5662 13.7705C3.66829 12.7361 3.1201 11.4445 2.99989 10.08C2.88802 8.88533 3.1132 7.6832 3.64989 6.61001L7.99989 11L10.4999 10.5L10.9999 8.00001L6.60989 3.68001C7.6801 3.133 8.88237 2.89739 10.0799 3.00001C11.4444 3.12022 12.736 3.66841 13.7704 4.56632C14.8048 5.46424 15.5291 6.66598 15.8399 8.00001C16.1751 9.49252 15.9807 11.0552 15.2899 12.42L20.4999 17.63C20.6919 17.8164 20.8446 18.0395 20.9488 18.286C21.0531 18.5325 21.1068 18.7974 21.1068 19.065C21.1068 19.3326 21.0531 19.5975 20.9488 19.844C20.8446 20.0905 20.6919 20.3136 20.4999 20.5Z" stroke="#71DDB1" stroke-width="2" stroke-linecap="round" stroke-linejoin="round"/>
</svg>
