<svg width="24" height="24" viewBox="0 0 24 24" fill="none" xmlns="http://www.w3.org/2000/svg">
<path d="M20.5001 20.5C20.3144 20.686 20.0938 20.8335 19.851 20.9341C19.6082 21.0348 19.348 21.0866 19.0851 21.0866C18.8223 21.0866 18.562 21.0348 18.3193 20.9341C18.0765 20.8335 17.8559 20.686 17.6701 20.5L12.4601 15.29C11.0838 15.9902 9.50532 16.1849 8.00013 15.84C6.66611 15.5292 5.46436 14.8049 4.56645 13.7705C3.66853 12.7361 3.12034 11.4445 3.00013 10.08C2.88827 8.88533 3.11345 7.6832 3.65013 6.61001L8.00013 11L10.5001 10.5L11.0001 8.00001L6.61013 3.68001C7.68034 3.133 8.88262 2.89739 10.0801 3.00001C11.4446 3.12022 12.7362 3.66841 13.7706 4.56632C14.805 5.46424 15.5293 6.66598 15.8401 8.00001C16.1753 9.49252 15.9809 11.0552 15.2901 12.42L20.5001 17.63C20.6922 17.8164 20.8448 18.0395 20.9491 18.286C21.0533 18.5325 21.107 18.7974 21.107 19.065C21.107 19.3326 21.0533 19.5975 20.9491 19.844C20.8448 20.0905 20.6922 20.3136 20.5001 20.5Z" stroke="#71DDB1" stroke-width="2" stroke-linecap="round" stroke-linejoin="round"/>
</svg>
