<svg width="21" height="55" viewBox="0 0 21 55" fill="none" xmlns="http://www.w3.org/2000/svg">
<path d="M13.8503 30.2917H7.15033C6.45585 30.2952 5.78501 30.0397 5.26881 29.5751C4.7526 29.1105 4.4281 28.4702 4.35866 27.7792L2.12533 5.44587C2.08619 5.0565 2.12935 4.66325 2.25201 4.29164C2.37467 3.92002 2.57409 3.57835 2.83733 3.28879C3.10057 2.99923 3.42175 2.76824 3.78002 2.61082C4.1383 2.45341 4.52566 2.37307 4.91699 2.37504H16.0837C16.475 2.37307 16.8624 2.45341 17.2206 2.61082C17.5789 2.76824 17.9001 2.99923 18.1633 3.28879C18.4266 3.57835 18.626 3.92002 18.7486 4.29164C18.8713 4.66325 18.9145 5.0565 18.8753 5.44587L16.642 27.7792C16.5726 28.4702 16.248 29.1105 15.7318 29.5751C15.2156 30.0397 14.5448 30.2952 13.8503 30.2917ZM16.0837 47.0417C16.0837 45.9374 15.7562 44.8579 15.1427 43.9398C14.5292 43.0216 13.6572 42.306 12.637 41.8834C11.6168 41.4608 10.4941 41.3502 9.41107 41.5657C8.32801 41.7811 7.33316 42.3128 6.55231 43.0937C5.77147 43.8745 5.23971 44.8694 5.02427 45.9524C4.80884 47.0355 4.91941 48.1581 5.342 49.1784C5.76459 50.1986 6.48022 51.0706 7.39839 51.6841C8.31657 52.2976 9.39605 52.625 10.5003 52.625C11.9811 52.625 13.4013 52.0368 14.4483 50.9897C15.4954 49.9426 16.0837 48.5225 16.0837 47.0417Z" stroke="#023047" stroke-width="4" stroke-linecap="round" stroke-linejoin="round"/>
</svg>
