<svg width="20" height="20" viewBox="0 0 20 20" fill="none" xmlns="http://www.w3.org/2000/svg">
<path d="M11.1248 4C9.73243 4 8.39707 4.55312 7.4125 5.53769C6.42794 6.52226 5.87481 7.85761 5.87481 9.25V12.3878L5.25619 13.0064C5.13386 13.1287 5.05055 13.2846 5.0168 13.4543C4.98306 13.6241 5.00038 13.8 5.0666 13.9598C5.13281 14.1197 5.24493 14.2563 5.38879 14.3525C5.53265 14.4486 5.70178 14.5 5.87481 14.5H16.3748C16.5478 14.5 16.717 14.4486 16.8608 14.3525C17.0047 14.2563 17.1168 14.1197 17.183 13.9598C17.2492 13.8 17.2666 13.6241 17.2328 13.4543C17.1991 13.2846 17.1158 13.1287 16.9934 13.0064L16.3748 12.3878V9.25C16.3748 7.85761 15.8217 6.52226 14.8371 5.53769C13.8526 4.55312 12.5172 4 11.1248 4ZM11.1248 18C10.4286 18 9.76094 17.7234 9.26866 17.2312C8.77638 16.7389 8.49981 16.0712 8.49981 15.375H13.7498C13.7498 16.0712 13.4733 16.7389 12.981 17.2312C12.4887 17.7234 11.821 18 11.1248 18Z" fill="#71DDB1"/>
</svg>
