<svg width="20" height="20" viewBox="0 0 20 20" fill="none" xmlns="http://www.w3.org/2000/svg">
<path d="M10.0163 13.932C9.43291 14.3819 8.22852 15.4945 8.22852 17.0103C8.22852 18.0111 9.03006 18.8253 10.0153 18.8253C11.0006 18.8253 11.8022 18.0111 11.8022 17.0103C11.8022 15.5747 10.5971 14.4099 10.0163 13.932Z" fill="white"/>
<path d="M14.2034 3.48096C13.9867 3.23264 13.6127 3.2176 13.3767 3.4408L10.6556 6.0142V0.624943C10.6556 0.173811 10.1188 -0.163259 9.71681 0.0831466C9.64072 0.129787 7.83239 1.24869 6.00521 3.28061C3.78358 5.75123 2.27051 8.75939 2.27051 12.133C2.27051 16.4709 5.74495 20 10.0156 20C8.3926 20 7.07225 18.6588 7.07225 17.0103C7.07225 14.3466 9.6246 12.7693 9.73324 12.7034C9.92368 12.5881 10.1621 12.5935 10.3473 12.7171C10.4539 12.7883 12.9589 14.4908 12.9589 17.0103C12.9589 18.6588 11.6386 20 10.0156 20C14.2862 20 17.7607 16.4709 17.7607 12.133C17.7607 8.85744 16.3342 5.92154 14.2034 3.48096Z" fill="white"/>
</svg>
