<svg width="24" height="24" viewBox="0 0 24 24" fill="none" xmlns="http://www.w3.org/2000/svg">
<path d="M13.2001 15H10.8001C10.5514 15.0013 10.3111 14.9097 10.1262 14.7433C9.94125 14.5769 9.82501 14.3475 9.80013 14.1L9.00013 6.10001C8.98611 5.96054 9.00157 5.81967 9.04551 5.68656C9.08945 5.55344 9.16088 5.43105 9.25518 5.32733C9.34947 5.2236 9.46452 5.14086 9.59286 5.08447C9.7212 5.02809 9.85995 4.99931 10.0001 5.00001H14.0001C14.1403 4.99931 14.2791 5.02809 14.4074 5.08447C14.5357 5.14086 14.6508 5.2236 14.7451 5.32733C14.8394 5.43105 14.9108 5.55344 14.9548 5.68656C14.9987 5.81967 15.0142 5.96054 15.0001 6.10001L14.2001 14.1C14.1753 14.3475 14.059 14.5769 13.8741 14.7433C13.6892 14.9097 13.4489 15.0013 13.2001 15ZM14.0001 21C14.0001 20.6045 13.8828 20.2178 13.6631 19.8889C13.4433 19.56 13.1309 19.3036 12.7655 19.1523C12.4 19.0009 11.9979 18.9613 11.61 19.0384C11.222 19.1156 10.8656 19.3061 10.5859 19.5858C10.3062 19.8655 10.1157 20.2219 10.0386 20.6098C9.96139 20.9978 10.001 21.3999 10.1524 21.7654C10.3037 22.1308 10.5601 22.4432 10.889 22.663C11.2179 22.8827 11.6046 23 12.0001 23C12.5306 23 13.0393 22.7893 13.4143 22.4142C13.7894 22.0392 14.0001 21.5304 14.0001 21Z" stroke="#71DDB1" stroke-width="2" stroke-linecap="round" stroke-linejoin="round"/>
</svg>
