<svg width="20" height="20" viewBox="0 0 20 20" fill="none" xmlns="http://www.w3.org/2000/svg">
<path fill-rule="evenodd" clip-rule="evenodd" d="M9.99992 6.66671C9.11586 6.66671 8.26802 7.0179 7.6429 7.64302C7.01777 8.26814 6.66658 9.11599 6.66658 10C6.66658 10.8841 7.01777 11.7319 7.6429 12.3571C8.26802 12.9822 9.11586 13.3334 9.99992 13.3334C10.884 13.3334 11.7318 12.9822 12.3569 12.3571C12.9821 11.7319 13.3333 10.8841 13.3333 10C13.3333 9.11599 12.9821 8.26814 12.3569 7.64302C11.7318 7.0179 10.884 6.66671 9.99992 6.66671ZM8.82141 8.82153C9.13397 8.50897 9.55789 8.33337 9.99992 8.33337C10.4419 8.33337 10.8659 8.50897 11.1784 8.82153C11.491 9.13409 11.6666 9.55801 11.6666 10C11.6666 10.4421 11.491 10.866 11.1784 11.1786C10.8659 11.4911 10.4419 11.6667 9.99992 11.6667C9.55789 11.6667 9.13397 11.4911 8.82141 11.1786C8.50885 10.866 8.33325 10.4421 8.33325 10C8.33325 9.55801 8.50885 9.13409 8.82141 8.82153Z" fill="white" fill-opacity="0.5"/>
<path fill-rule="evenodd" clip-rule="evenodd" d="M9.15075 0.833374C8.77221 0.833374 8.44123 1.08851 8.34487 1.45458L7.92257 3.05891L6.58087 3.62451L5.55383 2.71077C5.22407 2.4174 4.72276 2.43202 4.41066 2.74412L2.744 4.41078C2.44208 4.7127 2.4172 5.19398 2.68639 5.52541L3.5865 6.63367L3.03453 7.9916L1.47713 8.3552C1.10002 8.44323 0.833252 8.77946 0.833252 9.16671V10.8334C0.833252 11.2091 1.08474 11.5384 1.44726 11.6373L3.057 12.0765L3.62412 13.4218L2.7113 14.4454C2.41729 14.7751 2.43163 15.2769 2.744 15.5893L4.41066 17.256C4.71299 17.5583 5.19506 17.5828 5.52646 17.3126L6.63432 16.4095L7.95888 16.9544L8.35861 18.5374C8.45205 18.9074 8.78493 19.1667 9.16658 19.1667H10.8333C11.2148 19.1667 11.5475 18.9076 11.6411 18.5378L12.0419 16.9541L13.4107 16.3871C13.5485 16.5026 13.7065 16.6383 13.8637 16.7752C14.0199 16.9112 14.1651 17.0394 14.2714 17.1337C14.3244 17.1808 14.3677 17.2193 14.3975 17.246L14.4428 17.2864C14.7723 17.5821 15.2761 17.569 15.5892 17.256L17.2558 15.5893C17.5625 15.2826 17.5827 14.7919 17.3022 14.4611L16.3944 13.3906L16.9561 12.0339L18.5428 11.6216C18.9102 11.5261 19.1666 11.1946 19.1666 10.815V9.16671C19.1666 8.78561 18.9081 8.45306 18.5387 8.3591L16.9618 7.95791L16.4015 6.60449L17.303 5.538C17.5827 5.20712 17.5622 4.71713 17.2558 4.41078L15.5892 2.74412C15.2816 2.43652 14.7891 2.41727 14.4585 2.69991L13.3998 3.60477L11.9988 3.0287L11.585 1.45485C11.4888 1.08865 11.1577 0.833374 10.7791 0.833374H9.15075ZM15.5346 14.9536L14.9644 15.5237L14.9582 15.5182C14.6504 15.2503 14.254 14.9111 14.0304 14.7513C13.7964 14.584 13.4926 14.5492 13.2269 14.6593L11.0177 15.5743C10.7746 15.675 10.5933 15.8847 10.5287 16.1398L10.1845 17.5H9.81565L9.47206 16.1393C9.40742 15.8834 9.22528 15.6731 8.98111 15.5727L6.80944 14.6794C6.52666 14.563 6.20288 14.6109 5.96588 14.8041L5.05687 15.5451L4.47901 14.9673L5.21854 14.138C5.43263 13.8979 5.48943 13.5561 5.36448 13.2597L4.43531 11.0555C4.3359 10.8197 4.13364 10.6426 3.88674 10.5753L2.49992 10.1969V9.8279L3.83354 9.51655C4.097 9.45504 4.31421 9.26947 4.41608 9.01884L5.31608 6.80467C5.43055 6.52306 5.38259 6.20146 5.19095 5.9655L4.45385 5.05795L5.03332 4.47848L5.86601 5.21931C6.10607 5.43288 6.44754 5.48941 6.74362 5.3646L8.94779 4.43543C9.18602 4.33501 9.36416 4.12969 9.42997 3.87967L9.79312 2.50004H10.1365L10.4923 3.85357C10.5587 4.10621 10.7398 4.3131 10.9814 4.41244L13.2372 5.33994C13.5264 5.45885 13.8578 5.40584 14.0955 5.20267L14.9556 4.46754L15.5354 5.04738L14.801 5.91625C14.5997 6.15435 14.5482 6.48488 14.6674 6.77294L15.5816 8.98128C15.6822 9.22414 15.8914 9.40534 16.1461 9.47015L17.4999 9.81457V10.1706L16.1353 10.5252C15.8824 10.5909 15.6749 10.7715 15.575 11.0129L14.66 13.2229C14.5405 13.5114 14.5924 13.8425 14.7943 14.0807L15.5346 14.9536Z" fill="white" fill-opacity="0.5"/>
</svg>
