<svg width="23" height="21" viewBox="0 0 23 21" fill="none" xmlns="http://www.w3.org/2000/svg">
<g clip-path="url(#clip0_1174_1880)">
<path d="M19.6632 6.46358C19.6434 6.43269 19.6235 6.40228 19.6034 6.37235C18.6783 4.99541 16.8871 4.2929 15.1461 4.6241C14.7473 4.69996 14.1542 4.85482 13.5938 5.16172C13.0277 5.47162 12.6314 5.8615 12.4159 6.32045C12.0585 7.08125 12.2156 7.98707 12.8827 9.01299C13.7902 10.4088 13.5718 11.8449 13.3788 13.1119C13.2621 13.8789 13.1612 14.5414 13.3165 15.1058C13.4946 15.7527 14.0026 16.1704 14.8701 16.3828C15.0238 16.4207 15.1822 16.4399 15.3412 16.4399C16.1643 16.4399 17.0113 15.9256 17.8173 14.9292C19.6418 12.6735 20.8519 8.32407 19.6632 6.46358Z" fill="white"/>
<path d="M13.3259 4.49633C13.4008 4.49633 13.4754 4.48985 13.549 4.47698C13.9415 4.40834 14.2721 4.16893 14.4798 3.8029C14.6792 3.45185 14.7413 3.02319 14.6551 2.59595C14.4736 1.69716 13.6822 1.07869 12.891 1.21696C12.4985 1.2856 12.1679 1.52501 11.9602 1.89103C11.7609 2.24209 11.6987 2.67075 11.785 3.09799C11.9492 3.9121 12.614 4.49633 13.3259 4.49633Z" fill="white"/>
<path d="M16.0495 4.05873C16.0745 4.06041 16.0994 4.06126 16.1242 4.06126C16.7561 4.06126 17.3001 3.5202 17.3547 2.81974C17.3852 2.48645 17.2909 2.15361 17.088 1.87763C16.8802 1.60374 16.5843 1.44064 16.2551 1.41844C15.5923 1.37346 15.0066 1.92952 14.9499 2.65743C14.9195 2.9907 15.0137 3.32351 15.2166 3.5995C15.4246 3.87351 15.7204 4.03649 16.0495 4.05873Z" fill="white"/>
<path d="M18.3847 4.25315C18.4033 4.25441 18.4218 4.25503 18.4402 4.255C18.9033 4.255 19.3018 3.86319 19.3413 3.35562C19.363 3.11542 19.2949 2.87562 19.1484 2.67685C19.0798 2.58119 18.9889 2.50116 18.8825 2.44271C18.7761 2.38427 18.6569 2.34891 18.5338 2.33926C18.0477 2.30656 17.6183 2.70904 17.5772 3.23675C17.5555 3.47703 17.6236 3.71692 17.7701 3.91575C17.8387 4.01138 17.9297 4.09137 18.0361 4.14978C18.1425 4.20819 18.2617 4.24352 18.3847 4.25315Z" fill="white"/>
<path d="M19.2229 4.82766C19.2581 4.92474 19.3164 5.01318 19.3934 5.0864C19.4703 5.15961 19.564 5.21572 19.6675 5.25055C19.7404 5.27421 19.817 5.28623 19.8941 5.2861C20.2365 5.2861 20.5743 5.05253 20.7099 4.69137C20.7877 4.49158 20.7889 4.27289 20.7133 4.07239C20.6781 3.9753 20.6198 3.88686 20.5428 3.81364C20.4658 3.74042 20.3721 3.6843 20.2687 3.64945C19.8596 3.51636 19.392 3.76718 19.2262 4.20852C19.1484 4.40836 19.1472 4.62711 19.2229 4.82766Z" fill="white"/>
<path d="M21.4399 5.29092C21.1075 5.03224 20.5748 5.11351 20.2526 5.47215C20.1042 5.63358 20.0203 5.83782 20.0151 6.05026C20.0113 6.15268 20.0323 6.25457 20.0767 6.34837C20.121 6.44216 20.1875 6.52544 20.2711 6.59199C20.4012 6.69172 20.5649 6.74531 20.7334 6.74325C20.8729 6.74015 21.01 6.70881 21.1352 6.65139C21.2605 6.59397 21.3708 6.51186 21.4585 6.41075C21.6069 6.24932 21.6908 6.04504 21.696 5.83257C21.6998 5.73016 21.6787 5.62828 21.6344 5.5345C21.5901 5.44072 21.5236 5.35746 21.4399 5.29092Z" fill="white"/>
<path d="M6.86519 8.24711C5.09471 8.38889 3.59101 9.53534 3.12341 11.0999C3.11323 11.1339 3.10334 11.1684 3.09372 11.2032C2.54169 13.2241 4.54433 16.5708 6.70375 18.2133C7.61157 18.9037 8.49369 19.2586 9.27107 19.2585C9.59089 19.2609 9.90707 19.1952 10.1955 19.0665C11.0151 18.6974 11.4134 18.2347 11.4488 17.6103C11.4797 17.0679 11.2307 16.4801 10.9424 15.7994C10.4693 14.6828 9.9331 13.4172 10.3729 11.8587C10.7 10.6991 10.5747 9.78893 10.0004 9.15368C9.65382 8.7704 9.155 8.50109 8.51773 8.35323C7.88665 8.20659 7.27076 8.21457 6.86519 8.24711ZM3.92229 12.491C3.91347 12.4431 3.90542 12.3955 3.89816 12.3482C3.89021 12.2963 3.9047 12.2437 3.93844 12.2018C3.97218 12.1599 4.02241 12.1322 4.07808 12.1248C4.13375 12.1174 4.1903 12.1309 4.23529 12.1623C4.28028 12.1937 4.31002 12.2405 4.31797 12.2923C4.32467 12.336 4.33211 12.38 4.34028 12.4242C4.34499 12.4497 4.34425 12.4759 4.3381 12.5012C4.33195 12.5265 4.32051 12.5504 4.30444 12.5716C4.28836 12.5927 4.26797 12.6108 4.24442 12.6246C4.22087 12.6384 4.19462 12.6478 4.16718 12.6522C4.13973 12.6566 4.11163 12.6559 4.08448 12.6502C4.05732 12.6444 4.03164 12.6338 4.0089 12.6188C3.98617 12.6039 3.96682 12.5849 3.95196 12.5629C3.93711 12.541 3.92704 12.5165 3.92233 12.491H3.92229ZM5.50062 15.5175C5.47688 15.531 5.45051 15.5401 5.42301 15.5442C5.39551 15.5482 5.36741 15.5472 5.34034 15.5411C5.31326 15.5351 5.28773 15.5241 5.2652 15.5089C5.24268 15.4937 5.22359 15.4744 5.20904 15.4523C4.71747 14.7055 4.33616 13.9315 4.1065 13.2141C4.09853 13.1893 4.09591 13.1632 4.09876 13.1374C4.10162 13.1116 4.1099 13.0866 4.12314 13.0638C4.14988 13.0177 4.19517 12.9834 4.24906 12.9684C4.30295 12.9534 4.36102 12.959 4.41049 12.9839C4.45997 13.0088 4.49679 13.051 4.51287 13.1012C4.73232 13.7863 5.09806 14.5279 5.57072 15.2459C5.58527 15.268 5.595 15.2926 5.59935 15.3182C5.60371 15.3439 5.6026 15.37 5.59609 15.3952C5.58958 15.4205 5.5778 15.4443 5.56142 15.4652C5.54504 15.4862 5.52438 15.504 5.50062 15.5175V15.5175Z" fill="white"/>
<path d="M8.2302 7.69022C8.27127 7.69023 8.31231 7.68829 8.35317 7.68441C8.75043 7.64666 9.10142 7.43391 9.34143 7.08542C9.57161 6.75119 9.6722 6.32889 9.62483 5.89639C9.52501 4.98667 8.79254 4.30825 7.99116 4.38451C7.59386 4.42227 7.24287 4.63498 7.00285 4.98351C6.77268 5.31778 6.67209 5.74004 6.71946 6.17253C6.81398 7.03558 7.47835 7.69026 8.2302 7.69022Z" fill="white"/>
<path d="M5.46193 8.00479C5.58683 8.00497 5.71072 7.98409 5.82764 7.94319C6.13652 7.83501 6.37043 7.60058 6.48645 7.28297C6.59695 6.96473 6.58589 6.6207 6.45516 6.30919C6.17901 5.62615 5.44828 5.24768 4.82614 5.46553C4.51726 5.57366 4.28335 5.80813 4.16733 6.1257C4.05682 6.44395 4.06786 6.78799 4.19858 7.09953C4.42185 7.65168 4.94212 8.00479 5.46193 8.00479Z" fill="white"/>
<path d="M3.37512 8.7917C3.46772 8.79182 3.55958 8.77634 3.64626 8.74601C3.76137 8.70427 3.8649 8.6389 3.94915 8.55477C4.03339 8.47063 4.09619 8.36989 4.13287 8.26004C4.21275 8.03067 4.20501 7.78263 4.11094 7.55797C3.91079 7.0628 3.37661 6.7899 2.92028 6.94977C2.80516 6.99151 2.70163 7.05689 2.61738 7.14103C2.53312 7.22517 2.47032 7.32592 2.43363 7.43578C2.35377 7.66514 2.36152 7.91316 2.45556 8.13781C2.61695 8.53705 2.99538 8.7917 3.37512 8.7917Z" fill="white"/>
<path d="M2.30524 10.1625C2.45393 10.1638 2.59924 10.1213 2.72035 10.0409C2.80898 9.98019 2.88177 9.90163 2.9333 9.81109C2.98483 9.72054 3.01376 9.62034 3.01795 9.51794C3.02935 9.30569 2.9616 9.0963 2.82619 8.92526C2.53279 8.54584 2.00776 8.42882 1.65626 8.66428C1.56763 8.72501 1.49484 8.80357 1.44332 8.89411C1.39179 8.98466 1.36286 9.08486 1.35866 9.18726C1.34724 9.39951 1.41501 9.60891 1.55046 9.77994C1.74129 10.0267 2.02994 10.1625 2.30524 10.1625Z" fill="white"/>
<path d="M1.35663 11.6261C1.51998 11.7287 1.71215 11.7842 1.90918 11.7857C2.16891 11.7857 2.41007 11.6828 2.55027 11.4865C2.61026 11.4006 2.64865 11.3032 2.6626 11.2015C2.67654 11.0999 2.66567 10.9966 2.63079 10.8994C2.56109 10.697 2.41841 10.5233 2.22692 10.4077C1.80868 10.1488 1.27322 10.2114 1.03325 10.5472C0.97328 10.6331 0.934893 10.7305 0.920943 10.8322C0.906993 10.9338 0.91784 11.0371 0.952677 11.1343C1.02238 11.3367 1.16506 11.5104 1.35655 11.626L1.35663 11.6261Z" fill="white"/>
</g>
<defs>
<clipPath id="clip0_1174_1880">
<rect width="21.7117" height="20.2206" fill="white" transform="translate(0.450195 0.117676)"/>
</clipPath>
</defs>
</svg>
