<svg width="20" height="20" viewBox="0 0 20 20" fill="none" xmlns="http://www.w3.org/2000/svg">
<path d="M8.33325 7.50004C8.33325 7.0109 8.51569 6.69807 8.75521 6.49484C9.01285 6.27624 9.38605 6.14587 9.79159 6.14587C10.1971 6.14587 10.5703 6.27624 10.828 6.49484C11.0675 6.69807 11.2499 7.0109 11.2499 7.50004C11.2499 7.86435 11.1641 8.0666 11.0644 8.21618C10.948 8.39069 10.7949 8.5283 10.536 8.76102L10.4841 8.80771C10.2178 9.04741 9.86739 9.37146 9.60023 9.84345C9.3249 10.3299 9.16659 10.9176 9.16659 11.6667C9.16659 12.1269 9.53968 12.5 9.99992 12.5C10.4602 12.5 10.8333 12.1269 10.8333 11.6667C10.8333 11.1658 10.9354 10.8681 11.0507 10.6644C11.1741 10.4463 11.3446 10.2756 11.5991 10.0465C11.622 10.0259 11.6461 10.0044 11.6713 9.98194C11.899 9.77896 12.2109 9.50091 12.4511 9.14068C12.742 8.70432 12.9166 8.1774 12.9166 7.50004C12.9166 6.53085 12.5261 5.74993 11.9063 5.22399C11.3045 4.71342 10.5319 4.47921 9.79159 4.47921C9.05128 4.47921 8.27866 4.71342 7.67692 5.22399C7.05706 5.74993 6.66659 6.53085 6.66659 7.50004C6.66659 7.96028 7.03968 8.33337 7.49992 8.33337C7.96016 8.33337 8.33325 7.96028 8.33325 7.50004Z" fill="white" fill-opacity="0.5"/>
<path d="M10.6249 15.5598C10.9345 15.2192 10.9094 14.6922 10.5688 14.3826C10.2283 14.073 9.70125 14.0981 9.39165 14.4386L9.38332 14.4478C9.07372 14.7883 9.0988 15.3154 9.43934 15.625C9.77988 15.9346 10.3069 15.9095 10.6165 15.569L10.6249 15.5598Z" fill="white" fill-opacity="0.5"/>
<path fill-rule="evenodd" clip-rule="evenodd" d="M9.99992 0.833374C4.93718 0.833374 0.833252 4.9373 0.833252 10C0.833252 15.0628 4.93718 19.1667 9.99992 19.1667C15.0627 19.1667 19.1666 15.0628 19.1666 10C19.1666 4.9373 15.0627 0.833374 9.99992 0.833374ZM2.49992 10C2.49992 5.85778 5.85766 2.50004 9.99992 2.50004C14.1422 2.50004 17.4999 5.85778 17.4999 10C17.4999 14.1423 14.1422 17.5 9.99992 17.5C5.85766 17.5 2.49992 14.1423 2.49992 10Z" fill="white" fill-opacity="0.5"/>
</svg>
