<svg width="18" height="17" viewBox="0 0 18 17" fill="none" xmlns="http://www.w3.org/2000/svg">
<path fill-rule="evenodd" clip-rule="evenodd" d="M9.00008 0.231445C8.2387 0.231445 7.49186 0.440069 6.84071 0.834657L2.67404 3.35966C2.06132 3.73095 1.55468 4.25397 1.20307 4.87819C0.851456 5.50241 0.666736 6.20675 0.666748 6.92318V12.1665C0.666748 13.2716 1.10573 14.3314 1.88714 15.1128C2.66854 15.8942 3.72835 16.3332 4.83341 16.3332H13.1667C14.2718 16.3332 15.3316 15.8942 16.113 15.1128C16.8944 14.3314 17.3334 13.2716 17.3334 12.1665V6.92235C17.3332 6.20608 17.1484 5.50176 16.7968 4.87774C16.4452 4.25372 15.9387 3.73087 15.3261 3.35966L11.1595 0.834664C10.5083 0.440076 9.76146 0.231445 9.00008 0.231445ZM7.70447 2.26003C8.09516 2.02328 8.54325 1.89811 9.00008 1.89811C9.45691 1.89811 9.905 2.02328 10.2957 2.26003L14.4624 4.78503C14.8299 5.00776 15.1338 5.32147 15.3448 5.69589C15.5557 6.07025 15.6666 6.49266 15.6667 6.92235V12.1665C15.6667 12.8296 15.4034 13.4654 14.9345 13.9343C14.4657 14.4031 13.8298 14.6665 13.1667 14.6665H12.3334V12.1665C12.3334 11.2825 11.9822 10.4346 11.3571 9.80949C10.732 9.18437 9.88413 8.83318 9.00008 8.83318C8.11603 8.83318 7.26818 9.18437 6.64306 9.80949C6.01794 10.4346 5.66675 11.2825 5.66675 12.1665V14.6665H4.83341C4.17037 14.6665 3.53449 14.4031 3.06565 13.9343C2.59681 13.4654 2.33341 12.8296 2.33341 12.1665V6.92318C2.33341 6.49332 2.44424 6.07069 2.65521 5.69616C2.86618 5.32163 3.17016 5.00782 3.53779 4.78504L7.70447 2.26003ZM10.1786 10.988C10.4912 11.3006 10.6667 11.7245 10.6667 12.1665V14.6665H7.33341V12.1665C7.33341 11.7245 7.50901 11.3006 7.82157 10.988C8.13413 10.6754 8.55805 10.4999 9.00008 10.4999C9.44211 10.4999 9.86603 10.6754 10.1786 10.988Z" fill="white" fill-opacity="0.5"/>
</svg>
