<svg width="14" height="18" viewBox="0 0 14 18" fill="none" xmlns="http://www.w3.org/2000/svg">
<path d="M2.83325 0.666626C2.17021 0.666626 1.53433 0.930018 1.06548 1.39886C0.596644 1.8677 0.333252 2.50358 0.333252 3.16663V14.8333C0.333252 15.4963 0.596644 16.1322 1.06548 16.6011C1.53433 17.0699 2.17021 17.3333 2.83325 17.3333H11.1666C11.8296 17.3333 12.4655 17.0699 12.9344 16.6011C13.4032 16.1322 13.6666 15.4963 13.6666 14.8333V14C13.6666 13.5397 13.2935 13.1666 12.8333 13.1666C12.373 13.1666 11.9999 13.5397 11.9999 14V14.8333C11.9999 15.0543 11.9121 15.2663 11.7558 15.4225C11.5996 15.5788 11.3876 15.6666 11.1666 15.6666H2.83325C2.61224 15.6666 2.40028 15.5788 2.244 15.4225C2.08772 15.2663 1.99992 15.0543 1.99992 14.8333V3.16663C1.99992 2.94561 2.08772 2.73365 2.244 2.57737C2.40028 2.42109 2.61224 2.33329 2.83325 2.33329H11.1666C11.3876 2.33329 11.5996 2.42109 11.7558 2.57737C11.9121 2.73365 11.9999 2.94561 11.9999 3.16663V3.99996C11.9999 4.4602 12.373 4.83329 12.8333 4.83329C13.2935 4.83329 13.6666 4.4602 13.6666 3.99996V3.16663C13.6666 2.50358 13.4032 1.8677 12.9344 1.39886C12.4655 0.930018 11.8296 0.666626 11.1666 0.666626H2.83325Z" fill="#CC8889"/>
<path d="M10.9225 5.9107C10.5971 5.58527 10.0694 5.58527 9.744 5.9107C9.41856 6.23614 9.41856 6.76378 9.744 7.08921L10.8214 8.16663H6.99992C6.53968 8.16663 6.16658 8.53972 6.16658 8.99996C6.16658 9.4602 6.53968 9.83329 6.99992 9.83329H10.8214L9.744 10.9107C9.41856 11.2361 9.41856 11.7638 9.744 12.0892C10.0694 12.4147 10.5971 12.4147 10.9225 12.0892L13.4225 9.58921C13.7479 9.26378 13.7479 8.73614 13.4225 8.4107L10.9225 5.9107Z" fill="#CC8889"/>
</svg>
