<svg width="24" height="24" viewBox="0 0 24 24" fill="none" xmlns="http://www.w3.org/2000/svg">
<path d="M9 20.64C9.31 20.71 9.65 20.76 10 20.81C10.9945 20.9417 11.9968 21.0051 13 21C19 21 21 19 21 19V18C21 16.6739 20.4732 15.4021 19.5355 14.4645C18.5979 13.5268 17.3261 13 16 13H10C9.66405 12.9976 9.32881 13.0311 9 13.1" stroke="black" stroke-width="2" stroke-linecap="round" stroke-linejoin="round"/>
<path d="M3 17H7M5 19V15M13 3C13.9889 3 14.9556 3.29324 15.7779 3.84265C16.6001 4.39206 17.241 5.17295 17.6194 6.08658C17.9978 7.00021 18.0969 8.00555 17.9039 8.97545C17.711 9.94536 17.2348 10.8363 16.5355 11.5355C15.8363 12.2348 14.9454 12.711 13.9755 12.9039C13.0055 13.0969 12.0002 12.9978 11.0866 12.6194C10.173 12.241 9.39206 11.6001 8.84265 10.7779C8.29325 9.95561 8 8.98891 8 8C8 6.67392 8.52678 5.40215 9.46447 4.46447C10.4021 3.52678 11.6739 3 13 3Z" stroke="black" stroke-width="2" stroke-linecap="round" stroke-linejoin="round"/>
</svg>
