<svg width="16" height="18" viewBox="0 0 16 18" fill="none" xmlns="http://www.w3.org/2000/svg">
<path d="M10.4999 13.1667H5.49992M10.4999 13.1667H14.6666L13.4958 11.9958C13.3385 11.8386 13.2138 11.6519 13.1287 11.4464C13.0437 11.2409 12.9999 11.0207 12.9999 10.7983V8.16667C13 7.13245 12.6796 6.12362 12.0826 5.27907C11.4857 4.43453 10.6416 3.7958 9.66659 3.45083V3.16667C9.66659 2.72464 9.49099 2.30072 9.17843 1.98816C8.86587 1.67559 8.44195 1.5 7.99992 1.5C7.55789 1.5 7.13397 1.67559 6.82141 1.98816C6.50885 2.30072 6.33325 2.72464 6.33325 3.16667V3.45083C4.39159 4.1375 2.99992 5.99 2.99992 8.16667V10.7992C2.99992 11.2475 2.82159 11.6783 2.50409 11.9958L1.33325 13.1667H5.49992H10.4999ZM10.4999 13.1667V14C10.4999 14.663 10.2365 15.2989 9.76769 15.7678C9.29885 16.2366 8.66296 16.5 7.99992 16.5C7.33688 16.5 6.70099 16.2366 6.23215 15.7678C5.76331 15.2989 5.49992 14.663 5.49992 14V13.1667H10.4999Z" stroke="#A3A3A3" stroke-width="2" stroke-linecap="round" stroke-linejoin="round"/>
</svg>
