<svg width="20" height="20" viewBox="0 0 20 20" fill="none" xmlns="http://www.w3.org/2000/svg">
<path fill-rule="evenodd" clip-rule="evenodd" d="M9.99992 2.5C8.89485 2.5 7.83504 2.93899 7.05364 3.72039C6.27224 4.50179 5.83325 5.5616 5.83325 6.66667C5.83325 7.77174 6.27224 8.83154 7.05364 9.61294C7.10861 9.66791 7.16495 9.72119 7.22259 9.77273C6.50883 10.0998 5.85173 10.5534 5.28587 11.1193C4.03563 12.3695 3.33325 14.0652 3.33325 15.8333V16.6667C3.33325 17.1269 3.70635 17.5 4.16659 17.5C4.62682 17.5 4.99992 17.1269 4.99992 16.6667V15.8333C4.99992 14.5073 5.5267 13.2355 6.46438 12.2978C7.40207 11.3601 8.67384 10.8333 9.99992 10.8333C11.326 10.8333 12.5978 11.3601 13.5355 12.2978C14.4731 13.2355 14.9999 14.5073 14.9999 15.8333V16.6667C14.9999 17.1269 15.373 17.5 15.8333 17.5C16.2935 17.5 16.6666 17.1269 16.6666 16.6667V15.8333C16.6666 14.0652 15.9642 12.3695 14.714 11.1193C14.1481 10.5534 13.491 10.0998 12.7772 9.77273C12.8349 9.72119 12.8912 9.66791 12.9462 9.61294C13.7276 8.83154 14.1666 7.77174 14.1666 6.66667C14.1666 5.5616 13.7276 4.50179 12.9462 3.72039C12.1648 2.93899 11.105 2.5 9.99992 2.5ZM8.23215 4.8989C8.70099 4.43006 9.33688 4.16667 9.99992 4.16667C10.663 4.16667 11.2988 4.43006 11.7677 4.8989C12.2365 5.36774 12.4999 6.00363 12.4999 6.66667C12.4999 7.32971 12.2365 7.96559 11.7677 8.43443C11.2988 8.90327 10.663 9.16667 9.99992 9.16667C9.33688 9.16667 8.70099 8.90327 8.23215 8.43443C7.76331 7.96559 7.49992 7.32971 7.49992 6.66667C7.49992 6.00363 7.76331 5.36774 8.23215 4.8989Z" fill="white" fill-opacity="0.5"/>
</svg>
