<?xml version="1.0" encoding="utf-8"?>
<svg width="242" height="205.7" viewBox="0 36.3 242 205.7" fill="none" xmlns="http://www.w3.org/2000/svg">
  <path d="M106.45 51.1111C106.438 51.0899 106.427 51.0681 106.418 51.0455L106.433 51.0311C106.44 51.0573 106.446 51.084 106.45 51.1111V51.1111Z" fill="#3FBDF1" />
  <path d="M106.506 51.3986C106.484 51.3199 106.468 51.2395 106.459 51.1583C106.498 51.2321 106.514 51.3156 106.506 51.3986Z" fill="#3FBDF1" />
  <path d="M116.982 134.097C116.921 134.234 116.87 134.368 116.81 134.51C112.338 145.284 109.198 158.183 108.423 173.63C96.2322 143.447 75.8769 128.783 57.7235 121.711C58.0874 111.641 59.5522 94.1345 65.308 83.3965C65.308 83.3965 74.9786 85.6962 87.126 95.2863C96.7098 102.853 107.849 114.972 116.982 134.097Z" fill="#3FBDF1" />
  <path d="M118.797 133.941L118.382 133.846C118.443 133.702 118.496 133.565 118.554 133.426C118.635 133.595 118.719 133.785 118.797 133.941Z" fill="#3FBDF1" />
  <path d="M118.797 133.941L118.382 133.846C118.443 133.702 118.496 133.565 118.554 133.426C118.635 133.595 118.719 133.785 118.797 133.941Z" fill="#3FBDF1" />
  <path d="M110.584 203.086C110.467 203.086 110.344 203.085 110.229 203.085C64.3253 202.914 26.4298 167.986 19.7862 122.513C19.3421 118.632 19.2811 116.315 19.2811 116.315C19.2811 116.315 35.8513 114.696 55.0277 122.327C72.0347 129.095 91.0961 143.126 102.509 172.004L102.509 172.026C102.578 172.199 102.647 172.37 102.709 172.55C106.119 181.289 108.822 191.379 110.57 203.021C110.577 203.043 110.584 203.064 110.584 203.086Z" fill="#3FBDF1" />
  <path d="M217.757 118.446C213.179 169.905 171.271 210.168 120.354 210.185C120.392 207.847 121.222 181.427 137.261 157.531C144.43 146.747 154.041 137.806 165.313 131.433C165.633 131.249 165.943 131.075 166.275 130.901C166.667 130.679 167.069 130.467 167.478 130.255C167.581 130.195 167.692 130.14 167.805 130.081C168.197 129.876 168.589 129.671 168.991 129.473C169.198 129.368 169.405 129.261 169.621 129.163C170.049 128.944 170.487 128.73 170.925 128.525C171.362 128.32 171.747 128.139 172.163 127.951L172.31 127.882C172.622 127.737 172.932 127.601 173.25 127.465C173.644 127.282 174.036 127.115 174.435 126.949C175.599 126.449 176.799 125.973 178.022 125.522L178.445 125.362C178.962 125.165 179.481 124.977 180.008 124.794C190.584 121.089 203.064 118.756 217.757 118.446Z" fill="#71DDB1" />
  <path d="M148.549 94.3073C138.118 102.147 126.355 114.522 118.554 133.426C109.43 113.923 98.323 101.562 88.7589 93.8471C94.4636 83.3057 107.384 61.8852 119.103 51.8872C119.103 51.8872 136.723 69.4219 148.549 94.3073Z" fill="#71DDB1" />
  <path d="M178.966 122.781C178.452 122.96 177.942 123.145 177.433 123.337L177.019 123.494C175.817 123.939 174.644 124.407 173.502 124.898C173.11 125.062 172.725 125.224 172.341 125.402C172.028 125.538 171.723 125.671 171.417 125.812L171.271 125.878C170.864 126.064 170.458 126.25 170.068 126.445C169.679 126.641 169.21 126.852 168.786 127.069C168.577 127.165 168.373 127.269 168.171 127.374C167.776 127.567 167.391 127.768 167.007 127.97C166.898 128.03 166.788 128.08 166.687 128.139C166.295 128.349 165.903 128.557 165.515 128.774C165.195 128.945 164.89 129.115 164.577 129.293C153.515 135.545 144.083 144.315 137.045 154.894C121.316 178.333 120.499 204.251 120.462 206.544L120.426 206.476C118.599 194.303 115.774 183.754 112.207 174.619L112.494 173.691L112 174.071C112 174.071 112 174.071 112 174.056C112.761 158.604 115.834 145.693 120.215 134.923L120.62 135.014L120.382 134.511C128.034 115.966 139.574 103.828 149.812 96.139C161.87 87.0856 172.132 84.1783 172.132 84.1783C177.575 90.9587 178.746 111.642 178.966 122.781Z" fill="#3FBDF1" />
  <path d="M109.519 176.326L109.52 176.301C109.52 176.301 109.519 176.316 109.519 176.326Z" stroke="#CCDDE2" stroke-width="0.84164" stroke-miterlimit="10" />
  <path d="M118.551 133.662C118.488 133.808 118.432 133.952 118.369 134.105C113.647 145.721 110.333 159.644 109.51 176.308C96.6436 143.749 75.1523 127.928 55.9783 120.302C56.3621 109.438 57.9111 90.5539 63.9942 78.9673C63.9942 78.9673 74.2043 81.4467 87.0306 91.793C97.1499 99.9543 108.91 113.029 118.551 133.662Z" stroke="#CCDDE2" stroke-width="0.84164" stroke-miterlimit="10" />
  <path d="M118.808 134.205L118.369 134.105C118.432 133.952 118.488 133.808 118.551 133.662C118.636 133.84 118.717 134.025 118.808 134.205Z" stroke="#CCDDE2" stroke-width="0.84164" stroke-miterlimit="10" />
  <path d="M109.519 176.326L109.52 176.301C109.52 176.301 109.519 176.316 109.519 176.326Z" stroke="#CCDDE2" stroke-width="0.84164" stroke-miterlimit="10" />
  <path d="M118.808 134.205L118.369 134.105C118.432 133.952 118.488 133.808 118.551 133.662C118.636 133.84 118.717 134.025 118.808 134.205Z" stroke="#CCDDE2" stroke-width="0.84164" stroke-miterlimit="10" />
  <path opacity="0.9" d="M39.2365 172.652C38.3929 171.614 37.5639 170.552 36.7661 169.474C26.0263 155.075 18.979 138.263 16.2408 120.509C15.5584 116.159 15.6763 113.524 15.6763 113.524C15.6763 113.524 34.3477 111.702 55.9811 120.302C75.1575 127.931 96.6416 143.739 109.51 176.308L109.51 176.335C109.588 176.529 109.669 176.724 109.733 176.926C113.586 186.783 116.63 198.154 118.603 211.287C118.603 211.311 118.603 211.335 118.603 211.362C118.466 211.361 118.336 211.361 118.199 211.36C91.4163 211.222 67.0303 200.449 48.6782 182.928C46.7645 181.104 44.9015 179.198 43.1228 177.225" stroke="#CCDDE2" stroke-width="0.84164" stroke-miterlimit="10" />
  <path d="M109.519 176.326L109.52 176.301C109.52 176.301 109.519 176.316 109.519 176.326Z" stroke="#CCDDE2" stroke-width="0.84164" stroke-miterlimit="10" />
  <path opacity="0.9" d="M221.685 114.298C216.842 168.738 172.513 211.325 118.646 211.343C118.686 208.87 119.565 180.921 136.529 155.641C144.115 144.234 154.284 134.776 166.209 128.034C166.548 127.841 166.878 127.657 167.222 127.474C167.638 127.235 168.061 127.016 168.485 126.79C168.593 126.725 168.711 126.67 168.829 126.606C169.245 126.389 169.661 126.172 170.084 125.965C170.303 125.851 170.522 125.727 170.75 125.634C171.205 125.395 171.667 125.179 172.131 124.962C172.595 124.745 172.999 124.552 173.439 124.352L173.595 124.278C173.925 124.126 174.254 123.983 174.591 123.838C175.007 123.645 175.42 123.469 175.844 123.293C177.075 122.765 178.344 122.26 179.637 121.78L180.084 121.612C180.633 121.405 181.181 121.203 181.738 121.013C192.942 117.084 206.145 114.627 221.685 114.298Z" stroke="#CCDDE2" stroke-width="0.84164" stroke-miterlimit="10" />
  <path d="M150.28 92.2805C139.247 100.572 126.802 113.662 118.551 133.662C108.91 113.029 97.1499 99.9543 87.0306 91.793C93.0736 80.6359 106.736 57.9819 119.124 47.4054C119.131 47.4054 137.755 65.9545 150.28 92.2805Z" stroke="#CCDDE2" stroke-width="0.84164" stroke-miterlimit="10" />
  <path d="M46.4572 151.386C46.4597 151.37 46.4597 151.354 46.4574 151.338C46.4574 151.321 46.4575 151.304 46.4576 151.273C46.4539 151.246 46.454 151.218 46.4579 151.191C46.4645 151.249 46.4755 151.306 46.4909 151.362C46.4873 151.368 46.4824 151.373 46.4766 151.377C46.4708 151.381 46.4642 151.384 46.4572 151.386Z" fill="white" />
  <path d="M46.4885 166.906C46.1136 168.099 45.6362 169.258 45.0616 170.369C44.8972 170.683 44.7352 170.99 44.5564 171.296C43.9458 172.432 43.1977 173.489 42.329 174.442C42.1755 174.391 42.0221 174.326 41.8855 174.27C41.8543 174.27 41.828 174.246 41.804 174.236C39.0119 173.007 36.9199 170.711 36.3053 168.138C35.7568 165.872 36.2677 163.425 35.2001 161.297C33.8848 158.675 30.3188 157.025 29.8833 154.065C29.4903 151.298 31.9892 148.77 31.5935 146.061C31.144 142.994 27.3843 141.162 26.6993 138.169C26.2621 136.309 26.6662 134.167 26.5125 132.251C26.3346 130.109 25.9795 127.985 25.451 125.902C25.7104 125.886 25.9697 125.88 26.2289 125.871C31.5105 125.802 36.7255 128.791 38.4239 132.982C39.7941 136.367 39.0762 140.267 40.8984 143.443C41.0087 143.648 41.1323 143.846 41.2683 144.035C41.5077 144.37 41.7653 144.691 42.0401 144.998L42.6212 145.608C42.7168 145.704 42.8221 145.793 42.9178 145.899C43.0134 146.005 43.1187 146.094 43.2167 146.2C44.1257 147.075 45.0538 147.96 45.6549 149.006C45.7104 149.097 45.759 149.192 45.8003 149.29C45.8565 149.385 45.9043 149.485 45.9432 149.588C45.995 149.694 46.041 149.802 46.0812 149.913C46.1288 150.033 46.1691 150.153 46.2071 150.285C46.264 150.48 46.3209 150.665 46.3586 150.86C46.3584 150.908 46.3582 150.948 46.3749 150.989C46.3915 151.03 46.3748 151.02 46.3747 151.037C46.3782 151.053 46.3781 151.069 46.3745 151.085C46.3779 151.113 46.3834 151.14 46.391 151.167L46.391 151.184C46.3917 151.214 46.3965 151.244 46.405 151.273V151.273C46.4049 151.304 46.4049 151.321 46.4048 151.337C46.4072 151.353 46.4071 151.37 46.4046 151.385L46.4046 151.402L45.7492 160.421C46.1396 162.605 47.1277 164.783 46.4885 166.906Z" fill="white" />
  <path d="M51.265 145.025C51.678 143.07 51.7169 141.018 52.6456 139.154C54.3725 135.718 59.3893 133.237 64.64 133.096L64.736 133.096C65.2161 133.098 65.6962 133.1 66.1762 133.126C65.6264 134.913 65.249 136.75 65.0492 138.609C64.8653 140.265 65.2761 142.12 64.8117 143.71C64.0651 146.292 60.1391 147.848 59.654 150.489C59.2228 152.83 61.8096 155.032 61.3734 157.414C60.903 159.966 57.1793 161.366 55.7977 163.635C54.6818 165.467 55.1925 167.577 54.6115 169.524C53.931 171.744 51.7152 173.716 48.8042 174.747C48.6167 174.811 48.4484 174.876 48.261 174.933C48.1625 174.956 48.0495 174.997 47.9534 175.02C47.9198 174.996 47.8888 174.962 47.8481 174.931C46.9124 174.128 45.866 172.775 45 171.32L45.0682 170.398C45.6428 169.287 46.1202 168.128 46.4951 166.934C47.1344 164.812 46.1462 162.634 45.7991 160.45L46.4544 151.431L46.6494 151.271C46.7206 151.219 46.7882 151.162 46.8517 151.101C47.8148 150.33 48.8546 149.589 49.5997 148.711C50.5255 147.632 50.9597 146.445 51.238 145.2" fill="white" />
  <path d="M51.2407 145.155C51.2409 145.114 51.2578 145.075 51.2652 145.025Z" fill="white" />
  <path d="M51.2652 145.018C51.265 145.068 51.248 145.107 51.2407 145.147C50.9624 146.392 50.5283 147.579 49.6024 148.658C48.8574 149.537 47.8199 150.277 46.8544 151.049C46.7909 151.11 46.7234 151.166 46.6522 151.218L46.4571 151.386C46.4604 151.376 46.4605 151.365 46.4572 151.354C46.4499 151.327 46.4412 151.299 46.4311 151.273V151.273C46.4274 151.246 46.4275 151.218 46.4314 151.191L46.4315 151.174C46.4239 151.148 46.4183 151.12 46.415 151.093C46.4185 151.077 46.4186 151.06 46.4151 151.045C46.4188 151.037 46.4207 151.029 46.4207 151.021C46.4208 151.012 46.4189 151.004 46.4153 150.997C46.4094 150.953 46.4008 150.91 46.3894 150.867C46.3517 150.672 46.2948 150.487 46.2379 150.293C46.1999 150.17 46.1596 150.04 46.112 149.92C46.0719 149.809 46.0258 149.701 45.974 149.595C45.9404 149.49 45.8923 149.39 45.8311 149.297C45.7898 149.199 45.7412 149.104 45.6857 149.013C45.0847 147.967 44.1565 147.087 43.2475 146.208C43.1495 146.102 43.0467 145.996 42.9486 145.906C42.8505 145.817 42.7477 145.711 42.652 145.615L42.0709 145.005C41.7962 144.699 41.5385 144.377 41.2991 144.042C41.2991 144.042 41.8716 134.699 46.6593 131.889C51.18 129.212 51.2711 143.441 51.2652 145.018Z" fill="white" />
  <path d="M51.2407 145.155C51.2409 145.114 51.2578 145.075 51.2652 145.025Z" fill="white" />
  <path d="M46.45 151.354L46.4499 151.393C46.4524 151.377 46.4524 151.361 46.45 151.345C46.4501 151.328 46.4502 151.311 46.4503 151.28C46.4466 151.253 46.4467 151.225 46.4506 151.198C46.4468 151.25 46.4466 151.302 46.45 151.354V151.354Z" fill="white" />
  <path d="M62.6748 136.08C54.0295 145.314 49.9094 164.839 48.2946 174.916C48.1618 175.768 48.0485 176.545 47.9403 177.246" fill="white" />
  <path d="M63.295 182.98L59.2471 206.337C59.1509 206.976 58.8323 207.559 58.3475 207.985C57.8627 208.411 57.243 208.652 56.5977 208.666L35.8905 208.589C35.2398 208.57 34.6173 208.319 34.1349 207.882C33.6525 207.445 33.3418 206.85 33.2587 206.205L29.6919 182.855L63.295 182.98Z" fill="white" />
  <path d="M67.0665 180.387C67.0278 181.079 66.7294 181.731 66.231 182.213C65.7325 182.694 65.0706 182.97 64.3777 182.984L28.6645 182.851C27.9786 182.832 27.3247 182.557 26.8312 182.081C26.3376 181.604 26.0403 180.96 25.9975 180.275V180.275C25.8524 178.609 27.0989 177.158 28.6857 177.164L64.3989 177.297C65.9688 177.315 67.1999 178.724 67.0665 180.387Z" fill="white" />
  <path d="M46.4741 151.403C46.4737 151.35 46.465 151.298 46.4482 151.249L46.4741 151.403Z" fill="white" />
  <path d="M28.8589 129.347C37.0841 140.114 40.8887 162.761 42.3744 174.45C42.5002 175.463 42.6072 176.393 42.7025 177.224" fill="white" />
  <path d="M47.2406 140.823C46.1941 144.005 46.1318 147.222 46.249 149.26C46.2795 149.918 46.3468 150.574 46.4505 151.225" fill="white" />
  <path d="M46.4572 151.386C46.4597 151.37 46.4597 151.354 46.4574 151.338C46.4574 151.321 46.4575 151.304 46.4576 151.273C46.4539 151.246 46.454 151.218 46.4579 151.191C46.4645 151.249 46.4755 151.306 46.4909 151.362C46.4873 151.368 46.4824 151.373 46.4766 151.377C46.4708 151.381 46.4642 151.384 46.4572 151.386Z" stroke="#CCDDE2" stroke-width="0.84164" stroke-miterlimit="10" />
  <path d="M46.4885 166.906C46.1136 168.099 45.6362 169.258 45.0616 170.369C44.8972 170.683 44.7352 170.99 44.5564 171.296C43.9458 172.432 43.1977 173.489 42.329 174.442C42.1755 174.391 42.0221 174.326 41.8855 174.27C41.8543 174.27 41.828 174.246 41.804 174.236C39.0119 173.007 36.9199 170.711 36.3053 168.138C35.7568 165.872 36.2677 163.425 35.2001 161.297C33.8848 158.675 30.3188 157.025 29.8833 154.065C29.4903 151.298 31.9892 148.77 31.5935 146.061C31.144 142.994 27.3843 141.162 26.6993 138.169C26.2621 136.309 26.6662 134.167 26.5125 132.251C26.3346 130.109 25.9795 127.985 25.451 125.902C25.7104 125.886 25.9697 125.88 26.2289 125.871C31.5105 125.802 36.7255 128.791 38.4239 132.982C39.7941 136.367 39.0762 140.267 40.8984 143.443C41.0087 143.648 41.1323 143.846 41.2683 144.035C41.5077 144.37 41.7653 144.691 42.0401 144.998L42.6212 145.608C42.7168 145.704 42.8221 145.793 42.9178 145.899C43.0134 146.005 43.1187 146.094 43.2167 146.2C44.1257 147.075 45.0538 147.96 45.6549 149.006C45.7104 149.097 45.759 149.192 45.8003 149.29C45.8565 149.385 45.9043 149.485 45.9432 149.588C45.995 149.694 46.041 149.802 46.0812 149.913C46.1288 150.033 46.1691 150.153 46.2071 150.285C46.264 150.48 46.3209 150.665 46.3586 150.86C46.3584 150.908 46.3582 150.948 46.3749 150.989C46.3915 151.03 46.3748 151.02 46.3747 151.037C46.3782 151.053 46.3781 151.069 46.3745 151.085C46.3779 151.113 46.3834 151.14 46.391 151.167L46.391 151.184C46.3917 151.214 46.3965 151.244 46.405 151.273V151.273C46.4049 151.304 46.4049 151.321 46.4048 151.337C46.4072 151.353 46.4071 151.37 46.4046 151.385L46.4046 151.402L45.7492 160.421C46.1396 162.605 47.1277 164.783 46.4885 166.906Z" stroke="#CCDDE2" stroke-width="0.84164" stroke-miterlimit="10" />
  <path d="M51.265 145.025C51.678 143.07 51.7169 141.018 52.6456 139.154C54.3725 135.718 59.3893 133.237 64.64 133.096L64.736 133.096C65.2161 133.098 65.6962 133.1 66.1762 133.126C65.6264 134.913 65.249 136.75 65.0492 138.609C64.8653 140.265 65.2761 142.12 64.8117 143.71C64.0651 146.292 60.1391 147.848 59.654 150.489C59.2228 152.83 61.8096 155.032 61.3734 157.414C60.903 159.966 57.1793 161.366 55.7977 163.635C54.6818 165.467 55.1925 167.577 54.6115 169.524C53.931 171.744 51.7152 173.716 48.8042 174.747C48.6167 174.811 48.4484 174.876 48.261 174.933C48.1625 174.956 48.0495 174.997 47.9534 175.02C47.9198 174.996 47.8888 174.962 47.8481 174.931C46.9124 174.128 45.866 172.775 45 171.32L45.0682 170.398C45.6428 169.287 46.1202 168.128 46.4951 166.934C47.1344 164.812 46.1462 162.634 45.7991 160.45L46.4544 151.431L46.6494 151.271C46.7206 151.219 46.7882 151.162 46.8517 151.101C47.8148 150.33 48.8546 149.589 49.5997 148.711C50.5255 147.632 50.9597 146.445 51.238 145.2" stroke="#CCDDE2" stroke-width="0.84164" stroke-miterlimit="10" />
  <path d="M51.2407 145.155C51.2409 145.114 51.2578 145.075 51.2652 145.025" stroke="#CCDDE2" stroke-width="0.84164" stroke-miterlimit="10" />
  <path d="M51.2652 145.018C51.265 145.068 51.248 145.107 51.2407 145.147C50.9624 146.392 50.5283 147.579 49.6024 148.658C48.8574 149.537 47.8199 150.277 46.8544 151.049C46.7909 151.11 46.7234 151.166 46.6522 151.218L46.4571 151.386C46.4604 151.376 46.4605 151.365 46.4572 151.354C46.4499 151.327 46.4412 151.299 46.4311 151.273V151.273C46.4274 151.246 46.4275 151.218 46.4314 151.191L46.4315 151.174C46.4239 151.148 46.4183 151.12 46.415 151.093C46.4185 151.077 46.4186 151.06 46.4151 151.045C46.4188 151.037 46.4207 151.029 46.4207 151.021C46.4208 151.012 46.4189 151.004 46.4153 150.997C46.4094 150.953 46.4008 150.91 46.3894 150.867C46.3517 150.672 46.2948 150.487 46.2379 150.293C46.1999 150.17 46.1596 150.04 46.112 149.92C46.0719 149.809 46.0258 149.701 45.974 149.595C45.9404 149.49 45.8923 149.39 45.8311 149.297C45.7898 149.199 45.7412 149.104 45.6857 149.013C45.0847 147.967 44.1565 147.087 43.2475 146.208C43.1495 146.102 43.0467 145.996 42.9486 145.906C42.8505 145.817 42.7477 145.711 42.652 145.615L42.0709 145.005C41.7962 144.699 41.5385 144.377 41.2991 144.042C41.2991 144.042 41.8716 134.699 46.6593 131.889C51.18 129.212 51.2711 143.441 51.2652 145.018Z" stroke="#CCDDE2" stroke-width="0.84164" stroke-miterlimit="10" />
  <path d="M51.2407 145.155C51.2409 145.114 51.2578 145.075 51.2652 145.025" stroke="#CCDDE2" stroke-width="0.84164" stroke-miterlimit="10" />
  <path d="M46.45 151.354L46.4499 151.393C46.4524 151.377 46.4524 151.361 46.45 151.345C46.4501 151.328 46.4502 151.311 46.4503 151.28C46.4466 151.253 46.4467 151.225 46.4506 151.198C46.4468 151.25 46.4466 151.302 46.45 151.354V151.354Z" stroke="#CCDDE2" stroke-width="0.84164" stroke-miterlimit="10" />
  <path d="M62.6748 136.08C54.0295 145.314 49.9094 164.839 48.2946 174.916C48.1618 175.768 48.0485 176.545 47.9403 177.246" stroke="#CCDDE2" stroke-width="0.84164" stroke-miterlimit="10" />
  <path d="M63.295 182.98L59.2471 206.337C59.1509 206.976 58.8323 207.559 58.3475 207.985C57.8627 208.411 57.243 208.652 56.5977 208.666L35.8905 208.589C35.2398 208.57 34.6173 208.319 34.1349 207.882C33.6525 207.445 33.3418 206.85 33.2587 206.205L29.6919 182.855L63.295 182.98Z" stroke="#CCDDE2" stroke-width="0.84164" stroke-miterlimit="10" />
  <path d="M67.0665 180.387C67.0278 181.079 66.7294 181.731 66.231 182.213C65.7325 182.694 65.0706 182.97 64.3777 182.984L28.6645 182.851C27.9786 182.832 27.3247 182.557 26.8312 182.081C26.3376 181.604 26.0403 180.96 25.9975 180.275V180.275C25.8524 178.609 27.0989 177.158 28.6857 177.164L64.3989 177.297C65.9688 177.315 67.1999 178.724 67.0665 180.387Z" stroke="#CCDDE2" stroke-width="0.84164" stroke-miterlimit="10" />
  <path d="M46.4741 151.403C46.4737 151.35 46.465 151.298 46.4482 151.249L46.4741 151.403Z" stroke="#CCDDE2" stroke-width="0.84164" stroke-miterlimit="10" />
  <path d="M28.8589 129.347C37.0841 140.114 40.8887 162.761 42.3744 174.45C42.5002 175.463 42.6072 176.393 42.7025 177.224" stroke="#CCDDE2" stroke-width="0.84164" stroke-miterlimit="10" />
  <path d="M47.2406 140.823C46.1941 144.005 46.1318 147.222 46.249 149.26C46.2795 149.918 46.3468 150.574 46.4505 151.225" stroke="#CCDDE2" stroke-width="0.84164" stroke-miterlimit="10" />
  <path d="M181.739 121.013C181.181 121.203 180.633 121.405 180.085 121.612L179.638 121.78C178.344 122.256 177.075 122.765 175.844 123.293C175.421 123.469 175.007 123.645 174.591 123.838C174.255 123.983 173.925 124.126 173.596 124.279L173.439 124.352C172.999 124.552 172.562 124.752 172.131 124.962C171.701 125.172 171.205 125.403 170.751 125.634C170.51 125.739 170.303 125.851 170.084 125.965C169.661 126.172 169.245 126.389 168.829 126.606C168.711 126.671 168.588 126.725 168.485 126.79C168.062 127.016 167.638 127.24 167.222 127.474C166.878 127.658 166.549 127.841 166.209 128.034C154.284 134.777 144.116 144.235 136.529 155.641C119.566 180.921 118.686 208.868 118.646 211.343L118.605 211.271C116.635 198.144 113.588 186.766 109.743 176.909L110.052 175.909L109.52 176.32C109.52 176.32 109.52 176.32 109.52 176.303C110.343 159.639 113.657 145.716 118.379 134.1L118.818 134.2C118.732 134.02 118.646 133.835 118.561 133.657C126.811 113.657 139.257 100.567 150.29 92.2758C163.289 82.5105 174.361 79.3734 174.361 79.3734C180.239 86.6931 181.5 108.999 181.739 121.013Z" stroke="#CCDDE2" stroke-width="0.84164" stroke-miterlimit="10" />
  <path d="M182.203 207.239C180.482 206.887 178.797 206.468 177.147 205.982C170.38 203.976 162.523 200.567 159.851 193.451C159.183 191.613 158.978 189.638 159.253 187.701C159.529 185.765 160.277 183.926 161.432 182.347C162.655 180.663 164.371 179.4 166.342 178.733C170.632 177.364 175.366 179.54 178.532 182.744C181.698 185.949 183.728 190.066 186.204 193.83C183.971 188.78 181.705 183.584 181.416 178.071C181.192 173.774 182.376 169.118 185.35 165.901C188.088 162.939 194.473 160.637 198.219 162.828C200.691 164.277 201.669 167.344 202.083 170.178C203.221 177.934 201.694 185.805 200.174 193.496C201.191 189.385 202.281 185.236 204.336 181.532C206.39 177.828 209.53 174.561 213.542 173.2C216.352 172.25 219.683 172.366 222.027 174.192C224.212 175.881 225.181 178.748 225.473 181.5C225.96 186.116 224.858 190.791 222.974 195.03C215.946 210.855 196.622 210.174 182.203 207.239Z" fill="white" />
  <path d="M197.956 199.45C197.956 199.45 208.687 202.474 212.535 187.557Z" fill="white" />
  <path d="M193.271 173.946C190.259 180.704 193.17 201.027 193.17 201.027Z" fill="white" />
  <path d="M183.222 198.935C182.774 198.856 178.467 198.237 174.8 196.536C171.961 195.22 169.503 193.252 169.513 190.385" fill="white" />
  <path d="M175.685 190.411C175.685 190.411 171.468 195.29 174.8 196.539Z" fill="white" />
  <path d="M172.859 200.985C173.459 200.156 176.562 201.834 178.607 197.921Z" fill="white" />
  <path d="M191.91 182.902C190.852 182.101 188.069 182.888 187.685 176.513Z" fill="white" />
  <path d="M192.351 188.876C192.351 188.876 197.005 187.213 197.018 183.577Z" fill="white" />
  <path d="M202.3 199.553C202.3 199.553 204.748 193.304 205.754 190.52Z" fill="white" />
  <path d="M209.85 193.601C209.85 193.601 212.505 195.721 215.703 192.348Z" fill="white" />
  <path d="M209.862 190.538C209.862 190.538 208.146 189.785 208.959 185.493Z" fill="white" />
  <path d="M182.203 207.239C180.465 206.993 178.794 206.47 177.147 205.982C170.38 203.976 162.523 200.567 159.851 193.451C159.183 191.613 158.978 189.638 159.253 187.701C159.529 185.765 160.277 183.926 161.432 182.347C162.655 180.663 164.371 179.4 166.342 178.733C170.632 177.364 175.366 179.54 178.532 182.744C181.698 185.949 183.728 190.066 186.204 193.83C183.971 188.78 181.705 183.584 181.416 178.071C181.192 173.774 182.376 169.118 185.35 165.901C188.088 162.939 194.473 160.637 198.219 162.828C200.691 164.277 201.669 167.344 202.083 170.178C203.221 177.934 201.694 185.805 200.174 193.496C201.191 189.385 202.281 185.236 204.336 181.532C206.39 177.828 209.53 174.561 213.542 173.2C216.352 172.25 219.683 172.366 222.027 174.192C224.212 175.881 225.181 178.748 225.473 181.5C225.96 186.116 224.922 190.822 222.974 195.03C215.835 210.437 196.364 209.198 182.203 207.239Z" stroke="#CCDDE2" stroke-width="0.84164" stroke-miterlimit="10" />
  <path d="M197.956 199.45C197.956 199.45 208.687 202.474 212.535 187.557" stroke="#CCDDE2" stroke-width="0.84164" stroke-miterlimit="10" />
  <path d="M193.271 173.946C190.259 180.704 193.17 201.027 193.17 201.027" stroke="#CCDDE2" stroke-width="0.84164" stroke-miterlimit="10" />
  <path d="M183.222 198.935C182.774 198.856 178.467 198.237 174.8 196.536C171.961 195.22 169.503 193.252 169.513 190.385" stroke="#CCDDE2" stroke-width="0.84164" stroke-miterlimit="10" />
  <path d="M175.685 190.411C175.685 190.411 171.468 195.29 174.8 196.539" stroke="#CCDDE2" stroke-width="0.84164" stroke-miterlimit="10" />
  <path d="M172.859 200.985C173.459 200.156 176.562 201.834 178.607 197.921" stroke="#CCDDE2" stroke-width="0.84164" stroke-miterlimit="10" />
  <path d="M191.91 182.902C190.852 182.101 188.069 182.888 187.685 176.513" stroke="#CCDDE2" stroke-width="0.84164" stroke-miterlimit="10" />
  <path d="M192.351 188.876C192.351 188.876 197.005 187.213 197.018 183.577" stroke="#CCDDE2" stroke-width="0.84164" stroke-miterlimit="10" />
  <path d="M202.3 199.553C202.3 199.553 204.748 193.304 205.754 190.52" stroke="#CCDDE2" stroke-width="0.84164" stroke-miterlimit="10" />
  <path d="M209.85 193.601C209.85 193.601 212.505 195.721 215.703 192.348" stroke="#CCDDE2" stroke-width="0.84164" stroke-miterlimit="10" />
  <path d="M209.862 190.538C209.862 190.538 208.146 189.785 208.959 185.493" stroke="#CCDDE2" stroke-width="0.84164" stroke-miterlimit="10" />
  <path d="M210.733 153.195C212.872 155.053 214.78 157.161 216.416 159.475C219.422 163.617 221.114 168.569 221.27 173.685" stroke="#CCDDE2" stroke-width="0.84164" stroke-miterlimit="10" />
  <path d="M136.182 68.2844C140.513 65.6983 145.027 63.4033 149.825 61.7888C161.787 57.7523 175.105 58.7069 184.537 67.6987C192.713 75.4854 196.55 87.0226 197.301 98.0681C197.3 98.229 197.326 98.3995 197.332 98.57C197.674 104.261 197.353 110.542 197.288 116.829" stroke="#CCDDE2" stroke-width="0.84164" stroke-miterlimit="10" />
  <path d="M41.8171 115.902C42.9255 108.995 41.627 102.489 40.9333 95.3735C39.149 76.8342 45.125 54.6821 66.4835 51.9889C78.0887 50.5198 87.4876 54.8878 95.2993 63.2278C97.0544 65.0996 98.8082 67.2979 100.666 69.4221" stroke="#CCDDE2" stroke-width="0.84164" stroke-miterlimit="10" />
  <path d="M33.264 177.076C33.264 177.076 17.1227 169.896 18.7905 156.523C19.2558 152.749 21.0472 149.378 23.3057 146.282" stroke="#CCDDE2" stroke-width="0.84164" stroke-miterlimit="10" />
  <path d="M179.257 186.54C178.644 186.094 178.006 185.671 177.341 185.27C170.716 181.316 161.674 179.758 154.09 179.273C153.627 179.238 153.171 179.212 152.72 179.191C152.122 179.163 151.537 179.004 151.007 178.726C150.458 178.447 149.981 178.043 149.615 177.547C149.248 176.084 148.806 174.64 148.291 173.221L147.243 168.416C146.851 167.026 146.544 165.613 146.325 164.185C145.248 156.963 144.465 147.989 144.189 144.629C144.224 144.644 144.26 144.655 144.297 144.661L147.589 145.729C147.601 145.728 147.613 145.728 147.625 145.73L148.793 146.077C153.321 147.381 158.072 148.363 162.794 148.484C167.244 148.594 172.13 147.883 175.941 145.434C176.262 145.234 176.574 145.019 176.875 144.789C179.817 142.592 181.868 139.21 183.035 135.774C185.183 129.419 185.667 122.62 184.441 116.025C184.093 114.209 183.601 112.423 182.97 110.685C181.307 106.058 178.896 101.718 176.829 97.2189C176.353 96.1705 175.67 95.0709 175.591 93.9087C175.495 92.5232 176.211 91.1935 176.439 89.8477C176.705 88.2304 176.832 86.5932 176.817 84.9542C176.821 83.0102 176.456 81.083 175.741 79.2752C175.125 77.7557 174.03 75.207 172.069 75.2934C171.447 73.2793 170.404 70.9469 168.555 70.6783C168.074 70.6029 167.584 70.7202 167.19 71.0045C167.055 70.8094 166.909 70.6221 166.753 70.4436C165.983 69.5717 164.524 68.7836 163.348 69.2306C161.016 70.1437 162.07 73.3525 163.216 75.7885C162.622 75.6584 162.012 75.6157 161.406 75.6618C160.05 75.7767 158.478 76.3182 157.947 77.6222C157.659 78.3413 157.755 79.6404 158.483 80.0512C159.408 80.5611 160.547 80.2293 161.472 80.7081C162.504 81.2448 162.905 82.6747 162.749 83.7544C162.718 84.1778 162.548 84.579 162.265 84.8953C160.622 86.5264 159.515 82.0043 158.896 81.2578C158.055 80.2392 156.815 80.4195 155.931 81.2732C154.185 82.9471 154.928 86.3347 155.65 88.3683C156.434 90.5942 157.455 92.9362 159.093 94.6731C161.817 97.552 162.1 102.126 162.809 105.828C163.101 107.358 163.381 108.903 163.605 110.445C164.05 113.438 164.303 116.449 164.052 119.468C163.988 120.297 163.754 121.103 163.363 121.837C162.973 122.571 162.435 123.216 161.783 123.732C161.132 124.248 160.381 124.624 159.577 124.836C158.773 125.048 157.934 125.091 157.113 124.964C155.158 124.659 152.869 124.295 150.431 123.904C150.431 123.904 150.45 123.885 150.462 123.88C147.142 122.737 144.202 122.587 141.276 122.423C133.025 121.115 125.617 119.887 125.617 119.887C125.448 119.855 125.296 119.765 125.186 119.634C125.076 119.502 125.015 119.336 125.014 119.164L124.948 109.999C125.509 110.692 126.733 110.793 127.484 110.395C127.782 110.244 128.028 110.007 128.189 109.714C128.35 109.421 128.418 109.086 128.385 108.754V108.754C128.871 108.751 129.349 108.63 129.777 108.401C129.904 108.331 130.025 108.251 130.14 108.162C130.378 107.951 130.57 107.693 130.704 107.404C130.839 107.116 130.913 106.803 130.922 106.485C130.932 106.309 130.924 106.133 130.897 105.959C130.897 105.894 130.878 105.832 130.867 105.762C130.841 105.627 130.81 105.495 130.772 105.354C130.753 105.272 130.73 105.19 130.703 105.113C130.642 104.873 130.573 104.633 130.521 104.392C130.549 104.396 130.577 104.396 130.605 104.393C130.842 104.38 131.078 104.347 131.309 104.294C131.529 104.243 131.744 104.171 131.951 104.081C132.067 104.03 132.18 103.973 132.29 103.909C132.309 103.903 132.326 103.892 132.34 103.878C132.527 103.765 132.703 103.636 132.868 103.494C132.923 103.448 132.976 103.4 133.027 103.348C133.121 103.26 133.21 103.168 133.294 103.07C133.402 102.945 133.502 102.814 133.596 102.678C133.641 102.62 133.681 102.558 133.716 102.493C134.051 101.96 134.297 101.376 134.443 100.763C134.455 100.705 134.47 100.648 134.482 100.593C134.971 98.309 134.26 95.6969 132.256 94.8372C131.856 94.6653 130.436 94.4944 130.438 93.8918C130.439 93.8488 130.445 93.806 130.458 93.7647C130.455 93.756 130.455 93.7469 130.458 93.7383C130.496 93.6489 130.551 93.5677 130.619 93.4988C130.651 93.4605 130.694 93.4223 130.733 93.384C130.817 93.3099 130.911 93.2406 131 93.169C131.091 93.1091 131.179 93.0437 131.262 92.9731C131.298 92.9438 131.331 92.9127 131.364 92.8798C131.426 92.8105 131.491 92.7411 131.549 92.6717C131.607 92.6032 131.66 92.5313 131.708 92.4562C131.759 92.3796 131.81 92.303 131.856 92.2167C131.906 92.1412 131.949 92.061 131.984 91.9771C132.057 91.835 132.117 91.6865 132.163 91.5337C132.245 91.2824 132.297 91.0223 132.317 90.7589C132.318 90.6652 132.318 90.5692 132.318 90.4732C132.326 88.3655 130.615 86.177 128.444 85.9384C128.093 85.8987 127.737 85.9392 127.404 86.057C127.24 86.113 127.08 86.1781 126.923 86.2521L126.683 86.364C126.519 86.4402 126.353 86.5212 126.182 86.6022C126.038 86.6701 125.882 86.7087 125.723 86.7157C125.687 86.7143 125.651 86.7094 125.615 86.7009L125.546 86.6814C125.496 86.6701 125.45 86.6441 125.414 86.6065C125.372 86.5757 125.337 86.5363 125.311 86.4909C125.29 86.4468 125.275 86.3999 125.266 86.3515C125.265 86.3486 125.264 86.3453 125.264 86.3419C125.264 86.3385 125.265 86.3352 125.266 86.3323C125.254 86.2763 125.249 86.2191 125.25 86.1618C125.25 86.0431 125.268 85.9251 125.302 85.8115C125.371 85.5638 125.406 85.308 125.406 85.0509C125.406 84.9578 125.4 84.8647 125.387 84.7724C125.376 84.6441 125.357 84.5166 125.331 84.3905C125.1 83.4609 124.544 82.6443 123.765 82.0873C121.569 80.5235 117.443 80.5009 116.294 83.3798C116.27 83.4229 116.258 83.4685 116.239 83.5116C116.093 83.3406 115.947 83.1624 115.801 82.9842C115.7 82.9187 115.595 82.8605 115.485 82.8102C113.963 82.1396 111.78 82.4171 110.664 83.7141C109.738 84.7909 109.429 86.4582 110.243 87.6855C109.786 87.0909 109.165 86.6429 108.457 86.397C108.541 86.6347 108.653 86.8616 108.791 87.0728C108.726 86.9841 108.657 86.8989 108.583 86.8175C108.525 86.7525 108.468 86.6947 108.411 86.6392C108.353 86.5838 108.272 86.5043 108.202 86.4464C108.133 86.3886 108.056 86.3259 107.982 86.268C106.558 85.216 104.455 85.1001 103.118 86.4035C102.073 87.4223 101.851 88.8354 102.216 90.2075C102.58 91.5796 103.463 92.5359 104.123 93.7195C101.867 94.2776 100.055 96.7699 100.757 99.1155C100.903 99.6007 101.162 100.045 101.511 100.412C101.86 100.779 102.291 101.06 102.768 101.231C102.939 101.274 103.113 101.305 103.288 101.321C103.347 101.328 103.404 101.346 103.455 101.375C103.506 101.404 103.551 101.444 103.586 101.491C103.622 101.538 103.647 101.592 103.661 101.649C103.674 101.707 103.676 101.766 103.666 101.825C103.629 101.982 103.61 102.143 103.609 102.304C103.609 102.691 103.708 103.071 103.898 103.409C104.088 103.746 104.361 104.028 104.691 104.229C104.741 104.257 104.783 104.294 104.818 104.339C104.852 104.384 104.876 104.435 104.89 104.49C104.903 104.544 104.905 104.601 104.896 104.657C104.887 104.712 104.866 104.766 104.836 104.813C104.5 105.286 104.302 105.843 104.263 106.422C104.224 107.001 104.346 107.58 104.615 108.094C105.351 109.582 107.163 110.878 108.879 110.376C109.431 110.211 109.91 109.861 110.234 109.385C110.269 109.349 110.299 109.308 110.324 109.265C110.33 109.25 110.339 109.237 110.35 109.227C110.598 108.859 110.764 108.442 110.835 108.004C111.255 108.675 111.725 109.313 112.242 109.913L112.553 110.262L111.583 116.106L111.439 117.16C111.387 117.524 111.204 117.857 110.925 118.098C110.647 118.339 110.29 118.471 109.922 118.47C109.713 118.469 109.497 118.468 109.288 118.467C108.863 118.466 108.443 118.476 108.026 118.487C106.756 118.513 105.49 118.566 104.227 118.638C103.267 118.697 102.328 118.763 101.384 118.844C100.904 118.88 100.443 118.922 99.9674 118.97C99.4919 119.019 99.0212 119.063 98.5505 119.111C97.6307 119.211 96.7037 119.313 95.7814 119.432C94.6694 119.575 93.5646 119.722 92.4525 119.876C90.7136 120.124 88.9793 120.396 87.2378 120.69C85.5419 120.976 83.8532 121.275 82.1572 121.578C79.7742 122.009 77.3675 122.367 74.9511 122.752C74.3165 122.852 73.668 122.815 73.0487 122.645C72.4294 122.474 71.8536 122.173 71.3599 121.763C70.8661 121.352 70.4656 120.84 70.1852 120.262C69.9048 119.684 69.751 119.053 69.7339 118.411C69.4921 110.488 74.0326 96.056 74.0326 96.056C74.14 94.933 75.4801 94.1409 76.265 93.5053C78.5114 91.7444 79.8459 88.5806 80.6288 85.9165C81.1832 84.0149 81.7118 81.2993 80.1069 79.733C79.2266 78.8727 77.9886 78.6832 77.1423 79.6955C76.5177 80.4422 75.3775 84.9511 73.744 83.3078C73.4632 82.9894 73.2959 82.5869 73.2681 82.1633C73.1305 81.085 73.5175 79.658 74.5661 79.1266C75.4945 78.6499 76.6311 78.9951 77.5596 78.492C78.2813 78.0866 78.3966 76.7811 78.1136 76.067C77.5927 74.7592 76.0272 74.206 74.6689 74.0809C74.0631 74.0303 73.4532 74.0685 72.8585 74.1942C74.0222 71.7667 75.1024 68.566 72.7748 67.6379C71.6027 67.1702 70.133 67.9449 69.3616 68.8111C69.2048 68.9885 69.0583 69.1747 68.9226 69.3688C68.5293 69.0823 68.0393 68.9615 67.558 69.0324C65.6965 69.2871 64.6484 71.6118 64.012 73.6235C62.0703 73.5203 60.9615 76.0128 60.3269 77.5252C59.6077 79.2673 59.2221 81.1291 59.1902 83.0135C59.1228 85.0181 59.2568 87.0244 59.5904 89.0021C59.7457 89.8549 60.0283 90.6674 60.2293 91.5011C60.4492 92.4094 60.2034 93.3087 59.8713 94.1597C58.5701 97.4172 56.7415 100.464 55.3659 103.697C53.8747 107.119 52.6761 110.661 51.7832 114.285C50.0617 121.44 49.6854 129.031 51.6393 136.18C55.3339 149.69 74.3245 145.329 85.2083 141.587C89.7585 140.024 92.9015 138.562 92.9015 138.562C92.9015 138.562 92.9216 139.608 92.915 141.38L92.9141 141.62C92.8932 144.021 92.613 163.172 89.3343 177.222L89.2256 177.406C89.2521 177.387 89.3025 177.388 89.333 177.558C89.1544 177.941 88.8694 178.265 88.5119 178.491C88.1544 178.717 87.7395 178.836 87.3166 178.833C79.5917 178.773 47.0575 179.749 53.1463 200.791C54.2863 204.744 57.292 207.288 61.5186 208.802C64.8749 210.014 69.0044 210.551 73.5797 210.606L73.6109 210.606C64.6601 212.268 62.5293 225.566 72.5009 227.615C76.339 228.402 79.3897 225.927 82.8457 224.879C84.8208 224.303 86.8758 224.049 88.9316 224.128C90.2733 224.165 91.6107 224.296 92.9344 224.518C107.427 226.946 122.141 227.801 136.817 227.067C146.741 226.559 156.859 225.351 166.287 222.066C173.392 219.586 181.196 215.229 184.716 208.451C185.964 206.066 186.614 203.413 186.61 200.721C186.625 194.324 183.684 189.761 179.257 186.54Z" fill="white" />
  <path d="M29.4794 208.322L29.1182 207.978" stroke="#CCDDE2" stroke-width="0.84164" stroke-miterlimit="10" />
  <path d="M148.3 172.871L147.249 168.054C146.857 166.664 146.552 165.251 146.334 163.823C145.256 156.6 144.473 147.629 144.195 144.269L147.634 145.379L146.443 142.703C146.443 142.703 142.539 129.382 150.471 123.552C144.758 121.583 140.171 122.567 134.822 121.316C132.762 120.828 130.586 120.4 128.183 119.997L126.443 119.686C126.356 124.415 123.061 125.476 120.351 125.979C113.68 127.232 109.082 122.351 109.29 118.117C101.888 118.173 94.5702 119.123 87.2415 120.339C88.177 123.118 90.1385 131.441 84.4965 141.253L85.2168 141.231C89.767 139.666 92.91 138.207 92.91 138.207C92.91 138.207 92.9325 139.253 92.9259 141.025L92.925 141.265C92.9041 143.651 92.6239 162.816 89.3452 176.864C89.1034 177.322 89.2928 176.759 89.3437 177.268C89.1464 177.658 89.0104 178.076 88.9406 178.507L89.0989 177.886C88.2253 179.129 90.3946 180.647 93.5341 181.42C101.741 183.457 147.01 187.14 149.598 178.733C149.75 178.232 149.757 177.697 149.618 177.192C149.252 175.73 148.812 174.288 148.3 172.871V172.871Z" fill="#353642" />
  <path d="M88.9304 223.766C86.8769 223.689 84.8245 223.944 82.8517 224.519C79.3933 225.564 76.3377 228.042 72.5045 227.253C62.5328 225.204 64.6661 211.905 73.6169 210.244C74.474 210.228 75.331 210.226 76.1808 210.229L76.2384 210.23C80.3578 210.245 84.3711 210.368 87.6689 209.242C87.3582 209.527 79.3066 216.615 88.9304 223.766Z" fill="#3FBDF1" />
  <path d="M126.436 119.676L126.436 119.688C126.349 124.417 123.053 125.478 120.344 125.981C113.673 127.234 109.074 122.353 109.282 118.119" stroke="black" stroke-width="0.84164" stroke-miterlimit="10" />
  <path d="M73.6242 210.244C64.6734 211.905 62.5402 225.204 72.5118 227.253C76.3499 228.042 79.4006 225.564 82.859 224.519C84.8333 223.943 86.8874 223.689 88.9425 223.766C90.2812 223.808 91.6154 223.942 92.9356 224.167C107.428 226.6 122.141 227.46 136.819 226.731C146.742 226.221 156.858 225.015 166.285 221.73C173.393 219.248 181.195 214.891 184.715 208.115C185.963 205.729 186.613 203.076 186.609 200.383C186.633 193.978 183.685 189.415 179.268 186.192C178.653 185.745 178.013 185.325 177.352 184.922C170.727 180.968 161.687 179.41 154.103 178.925C153.64 178.892 153.182 178.864 152.733 178.843C152.135 178.816 151.551 178.659 151.021 178.381C150.47 178.102 149.993 177.698 149.628 177.202C149.272 176.731 149.023 176.189 148.897 175.612L148.304 172.873L147.254 168.056L146.334 163.823C145.256 156.6 144.473 147.629 144.195 144.269" stroke="black" stroke-width="0.84164" stroke-miterlimit="10" />
  <path d="M157.147 204.1C154.162 210.856 146.851 208.512 138.828 203.611C133.848 200.57 129.591 200.125 127.077 200.207C130.622 199.903 133.722 198.822 134.609 194.819C135.324 191.566 133.501 188.573 130.331 187.601C137.962 187.294 145.788 187.899 151.978 192.723C151.983 192.723 160.137 197.336 157.147 204.1Z" fill="#3FBDF1" />
  <path d="M130.592 104.013C130.565 104.017 130.538 104.017 130.51 104.013C130.583 104.388 130.724 104.789 130.816 105.188C130.89 105.49 130.921 105.8 130.908 106.11C130.802 107.562 129.769 108.346 128.372 108.379C128.406 108.712 128.339 109.048 128.178 109.343C128.018 109.637 127.772 109.875 127.473 110.027C126.722 110.418 125.496 110.325 124.935 109.629C124.27 108.822 124.605 107.825 125.014 106.945C125.162 106.636 125.309 106.344 125.43 106.078C125.578 105.747 125.706 105.419 125.82 105.083C126.225 103.841 126.539 102.571 126.761 101.284C127.032 99.9839 127.212 98.6667 127.302 97.3418C127.214 97.0198 127.273 96.5543 127.147 96.2178C126.964 95.6983 126.632 95.2445 126.192 94.9131C125.282 94.2375 124.067 94.2762 123.1 93.6773C122.224 93.1271 121.534 92.3256 121.121 91.3773C121.04 91.1802 120.964 90.9254 120.85 90.7041C120.799 90.584 120.721 90.477 120.623 90.3912C120.187 90.0223 119.93 90.6695 119.66 90.9206C119.384 91.1741 119.057 91.3657 118.7 91.4828C118.344 91.5998 117.966 91.6396 117.593 91.5994V91.5994C117.311 91.5612 117.037 91.4792 116.781 91.3564C116.592 91.253 116.416 91.1283 116.256 90.9847C116.066 90.7985 115.845 90.6474 115.602 90.5382C115.147 90.366 115.12 91.1197 115.054 91.3811C115.01 91.6071 114.915 91.8201 114.777 92.0042C114.639 92.1883 114.461 92.3387 114.256 92.444C114.009 92.5644 113.738 92.6281 113.463 92.6307C113.143 92.6424 112.823 92.5982 112.518 92.5C112.223 92.4113 111.943 92.2801 111.686 92.1104C111.64 92.0791 111.586 92.0614 111.53 92.0592C111.475 92.057 111.42 92.0705 111.371 92.0981C111.323 92.1256 111.283 92.1662 111.257 92.2152C111.23 92.2642 111.218 92.3196 111.222 92.3751C111.301 94.8576 108.977 95.7132 108.023 95.9641C107.687 100.06 108.673 104.155 110.836 107.649C110.754 108.153 110.546 108.628 110.233 109.032C108.664 109.419 106.856 108.985 106.181 107.631C105.466 106.188 105.572 104.194 106.695 103.171C105.92 103.048 105.708 101.902 106.155 101.231C106.193 101.167 106.21 101.128 106.187 101.066C106.091 100.804 104.952 100.581 104.64 100.484C104.196 100.323 103.795 100.061 103.469 99.7181C103.144 99.3751 102.903 98.9609 102.766 98.5084C102.114 96.3286 103.798 94.0111 105.893 93.4932C105.275 92.3914 104.46 91.5001 104.117 90.2289C103.773 88.9577 103.975 87.6382 104.949 86.6815C105.345 86.3078 105.828 86.0389 106.354 85.8992C106.88 85.7594 107.433 85.7533 107.962 85.8814C108.27 86.1069 108.542 86.3774 108.77 86.6838C108.63 86.4748 108.518 86.2484 108.437 86.0104C109.146 86.2542 109.768 86.7025 110.223 87.2989C109.409 86.0716 109.72 84.4019 110.643 83.3251C111.76 82.0281 113.945 81.7506 115.465 82.4236C115.575 82.4736 115.681 82.531 115.783 82.5953C115.927 82.7758 116.072 82.954 116.218 83.125C116.235 83.079 116.254 83.0342 116.276 82.9908C116.584 83.3095 116.875 83.644 117.149 83.9927C118.148 81.1829 122.078 81.1903 124.149 82.6648C124.637 83.0156 125.036 83.4758 125.313 84.0087C125.417 84.4764 125.406 84.9623 125.282 85.4249C125.153 85.8685 125.252 86.205 125.538 86.3021C125.752 86.3552 125.979 86.3269 126.174 86.2228C126.936 85.8824 127.567 85.4646 128.45 85.5639C131.329 85.8795 133.416 89.6322 131.7 92.0697C131.598 92.2211 131.483 92.3629 131.355 92.4933C131.114 92.7324 130.573 93.0113 130.452 93.3541C130.448 93.3626 130.448 93.372 130.452 93.3805C130.233 94.0999 131.826 94.2667 132.25 94.4531C136.009 96.0539 135.185 103.79 130.592 104.013Z" fill="#3FBDF1" />
  <path d="M65.2252 84.2507C64.3369 82.3413 65.0022 79.6719 66.0299 77.6569C66.8159 76.0922 66.2036 73.5765 64.2121 73.2882C62.1439 73.002 60.9771 75.6071 60.3255 77.1795C59.6049 78.9222 59.2185 80.7848 59.1864 82.6702C59.1259 84.6754 59.2656 86.6815 59.6034 88.6589C59.7587 89.5093 60.0413 90.3241 60.2398 91.1555C60.4597 92.0637 60.2139 92.9654 59.8819 93.814C58.5806 97.0716 56.7544 100.118 55.3764 103.352C53.8874 106.774 52.6897 110.316 51.7961 113.939C50.0747 121.094 49.6959 128.686 51.6498 135.835C55.3444 149.345 74.3374 144.984 85.2189 141.241C89.769 139.676 92.912 138.216 92.912 138.216C92.912 138.216 92.9345 139.263 92.9279 141.034C92.9276 141.116 92.9273 141.2 92.927 141.274C92.9149 148.397 92.5626 166.292 89.4551 176.913C89.3206 177.371 89.0402 177.773 88.6565 178.057C88.2729 178.341 87.8069 178.492 87.3295 178.487C79.6046 178.427 47.0729 179.403 53.1593 200.433C55.2166 207.537 63.2754 210.119 73.5831 210.246L73.6287 210.246C74.4665 210.249 75.3235 210.253 76.1926 210.232L76.2502 210.232C80.0798 210.113 83.8999 209.782 87.6928 209.24C101.129 207.398 115.432 203.414 124.673 200.539C125.206 200.4 125.75 200.312 126.299 200.273C126.527 200.248 126.779 200.23 127.063 200.219L127.087 200.219C129.596 200.127 133.853 200.573 138.837 203.623C146.861 208.524 154.174 210.868 157.156 204.112C160.139 197.355 151.982 192.723 151.982 192.723C145.792 187.899 137.966 187.301 130.336 187.601C127.981 187.696 125.637 187.884 123.373 188.055C114.31 188.743 105.246 189.43 96.1805 190.115L84.3037 191.031" stroke="black" stroke-width="0.84164" stroke-miterlimit="10" />
  <path d="M68.4587 82.9905C68.4587 82.9905 67.1746 80.3714 68.791 76.2892C69.4574 74.6113 70.2259 72.5809 69.9207 70.7385C69.8256 70.0564 69.4656 69.4393 68.9188 69.0207C68.5257 68.7339 68.0353 68.6139 67.5541 68.6868C65.6951 68.9391 64.6446 71.2662 64.0082 73.2755" stroke="black" stroke-width="0.84164" stroke-miterlimit="10" />
  <path d="M71.1676 81.4833C71.1676 81.4833 69.9463 79.3974 71.6338 76.2037C71.9167 75.6719 72.3951 74.8214 72.8429 73.8532C74.009 71.4258 75.0868 68.225 72.7593 67.2945C71.5871 66.8268 70.1175 67.6015 69.346 68.4701C69.1892 68.6467 69.0427 68.8321 68.9071 69.0254" stroke="black" stroke-width="0.84164" stroke-miterlimit="10" />
  <path d="M72.85 73.8389C73.4446 73.712 74.0547 73.6738 74.6605 73.7256C76.0188 73.8507 77.5843 74.4015 78.1076 75.7118C78.3905 76.433 78.2825 77.7313 77.5512 78.1343C76.6227 78.6398 75.4885 78.2995 74.5601 78.7713C73.5235 79.3004 73.1124 80.7272 73.2597 81.808C73.2874 82.2316 73.4548 82.6341 73.7355 82.9525C75.3666 84.5958 76.5069 80.0821 77.1314 79.3402C77.9802 78.3279 79.2158 78.515 80.096 79.3753C81.7034 80.9416 81.1724 83.6547 80.6155 85.5587C79.835 88.2229 78.5005 91.3867 76.2662 93.1452C75.4669 93.7712 74.1387 94.5777 74.0337 95.7008C74.0337 95.7008 69.4933 110.123 69.7327 118.054C69.7498 118.695 69.9036 119.326 70.1838 119.904C70.4641 120.482 70.8643 120.993 71.3578 121.404C71.8514 121.815 72.4268 122.115 73.0458 122.286C73.6648 122.457 74.3131 122.494 74.9474 122.394C77.3494 122.012 79.7658 121.653 82.1536 121.221C83.8495 120.917 85.5383 120.619 87.2342 120.332C94.7743 119.078 102.301 118.11 109.919 118.105C110.287 118.107 110.643 117.975 110.922 117.735C111.201 117.495 111.383 117.162 111.436 116.797L111.584 115.754L112.554 109.897" stroke="black" stroke-width="0.84164" stroke-miterlimit="10" />
  <path d="M170.771 85.9136C171.674 84.0109 171.028 81.3366 170.015 79.314C169.234 77.7435 169.872 75.2324 171.866 74.959C171.935 74.9592 172.005 74.9475 172.07 74.9477C174.031 74.859 175.126 77.4101 175.742 78.9296C176.458 80.7372 176.824 82.6644 176.821 84.6086C176.833 86.2476 176.706 87.8847 176.44 89.502C176.214 90.8455 175.496 92.1776 175.594 93.5607C175.671 94.7229 176.354 95.8249 176.833 96.8733C178.897 101.363 181.318 105.7 182.971 110.34C183.602 112.077 184.094 113.862 184.442 115.677C185.672 122.27 185.192 129.069 183.048 135.424C181.878 138.862 179.83 142.244 176.888 144.441C176.583 144.669 176.271 144.884 175.952 145.086C172.14 147.535 167.255 148.246 162.807 148.134C158.083 148.016 153.334 147.033 148.804 145.727C148.012 145.497 147.224 145.254 146.439 144.998C145.615 144.733 144.797 144.464 143.979 144.182C143.124 143.881 142.268 143.578 141.419 143.258" stroke="black" stroke-width="0.84164" stroke-miterlimit="10" />
  <path d="M172.07 74.9476C171.448 72.9336 170.406 70.5988 168.558 70.3326C168.078 70.2561 167.586 70.3725 167.191 70.6564C166.641 71.0709 166.277 71.6854 166.176 72.3667C165.857 74.2067 166.611 76.2404 167.265 77.9257C168.851 82.0126 167.545 84.6316 167.545 84.6316" stroke="black" stroke-width="0.84164" stroke-miterlimit="10" />
  <path d="M167.191 70.6565C167.057 70.4591 166.907 70.2761 166.756 70.0955C165.984 69.2236 164.528 68.438 163.35 68.8969C161.018 69.8077 162.071 73.0188 163.219 75.4549C163.672 76.4168 164.144 77.2804 164.411 77.8143C166.079 81.0253 164.835 83.0972 164.835 83.0972" stroke="black" stroke-width="0.84164" stroke-miterlimit="10" />
  <path d="M163.219 75.455C162.625 75.324 162.016 75.2805 161.41 75.3258C160.05 75.4432 158.481 75.9823 157.948 77.2886C157.659 78.0077 157.758 79.3068 158.486 79.7152C159.411 80.2276 160.548 79.8933 161.472 80.3745C162.505 80.9113 162.905 82.3411 162.75 83.4208C162.719 83.8442 162.549 84.2454 162.266 84.5617C160.623 86.1928 159.516 81.6707 158.897 80.9242C158.056 79.9033 156.819 80.0835 155.932 80.9372C154.185 82.6111 154.929 85.9987 155.651 88.0347C156.438 90.2582 157.456 92.6026 159.094 94.3371C161.82 97.228 162.101 101.79 162.812 105.492C163.104 107.025 163.384 108.567 163.606 110.111C164.051 113.102 164.304 116.116 164.053 119.135C163.989 119.963 163.754 120.77 163.363 121.504C162.973 122.238 162.434 122.883 161.783 123.399C161.131 123.915 160.38 124.291 159.576 124.502C158.772 124.714 157.933 124.758 157.111 124.63C146.382 122.946 125.618 119.529 125.618 119.529C125.448 119.499 125.294 119.41 125.183 119.278C125.072 119.146 125.011 118.979 125.011 118.807L124.944 109.639" stroke="black" stroke-width="0.84164" stroke-miterlimit="10" />
  <path d="M108.013 95.9569C107.556 100.677 109.176 106.022 112.236 109.553C117.944 116.13 122.798 109.592 122.798 109.592" stroke="black" stroke-width="0.84164" stroke-miterlimit="10" />
  <path d="M127.363 97.4934C127.197 97.1807 127.297 96.6169 127.154 96.2203C126.97 95.7007 126.638 95.2464 126.199 94.9132C125.285 94.24 124.072 94.2763 123.107 93.6822C122.23 93.1292 121.539 92.3265 121.123 91.3774C120.99 91.0744 120.886 90.6131 120.63 90.3937C120.192 90.0248 119.935 90.6696 119.668 90.9231C119.286 91.276 118.807 91.5062 118.293 91.5839C117.779 91.6616 117.254 91.5832 116.785 91.3589C116.354 91.1436 116.055 90.7128 115.605 90.5407C115.154 90.3685 115.122 91.1198 115.054 91.3836C115.01 91.6094 114.916 91.8224 114.779 92.0068C114.641 92.1912 114.464 92.3424 114.26 92.4489C113.464 92.8373 112.38 92.5764 111.691 92.1105C111.644 92.0783 111.59 92.06 111.534 92.0575C111.478 92.055 111.422 92.0686 111.373 92.0966C111.324 92.1245 111.284 92.1658 111.258 92.2155C111.231 92.2653 111.22 92.3215 111.224 92.3776C111.32 95.4988 107.621 96.0443 107.621 96.0443" stroke="black" stroke-width="0.84164" stroke-miterlimit="10" />
  <path d="M113.204 102.844C115.052 102.851 116.556 101.359 116.563 99.5105C116.57 97.6623 115.077 96.1585 113.229 96.1516C111.381 96.1447 109.877 97.6374 109.87 99.4855C109.863 101.334 111.356 102.838 113.204 102.844Z" stroke="black" stroke-width="0.84164" stroke-miterlimit="10" />
  <path d="M121.879 102.579C123.727 102.586 125.231 101.093 125.237 99.2451C125.244 97.3969 123.752 95.8931 121.904 95.8862C120.055 95.8794 118.552 97.372 118.545 99.2202C118.538 101.068 120.03 102.572 121.879 102.579Z" stroke="black" stroke-width="0.84164" stroke-miterlimit="10" />
  <path d="M111.816 99.8289C111.816 99.8289 113.159 101.382 114.553 99.839" stroke="black" stroke-width="0.84164" stroke-miterlimit="10" />
  <path d="M120.525 99.8613C120.525 99.8613 121.868 101.415 123.264 99.8715" stroke="black" stroke-width="0.84164" stroke-miterlimit="10" />
  <path d="M117.927 107.233C118.578 107.236 119.107 106.71 119.11 106.059C119.112 105.408 118.586 104.879 117.936 104.876C117.285 104.874 116.755 105.399 116.752 106.05C116.75 106.701 117.276 107.231 117.927 107.233Z" stroke="black" stroke-width="0.84164" stroke-miterlimit="10" />
  <path d="M116.563 99.5104C116.563 99.5104 117.326 98.2769 118.545 99.2201" stroke="black" stroke-width="0.84164" stroke-miterlimit="10" />
  <path d="M115.043 94.5379C115.043 94.5379 111.579 91.8699 108.658 94.3629" stroke="black" stroke-width="0.84164" stroke-miterlimit="10" />
  <path d="M125.212 93.1835C125.212 93.1835 121.091 91.7278 119.086 94.9971" stroke="black" stroke-width="0.84164" stroke-miterlimit="10" />
  <path d="M110.726 107.533C110.716 108.089 110.531 108.629 110.198 109.074C109.864 109.52 109.399 109.849 108.868 110.016C107.152 110.516 105.342 109.222 104.604 107.734C104.334 107.219 104.213 106.64 104.252 106.06C104.292 105.481 104.491 104.924 104.827 104.45C104.857 104.403 104.877 104.35 104.886 104.295C104.895 104.239 104.893 104.182 104.879 104.128C104.865 104.074 104.841 104.023 104.807 103.978C104.772 103.933 104.73 103.896 104.681 103.869C104.348 103.667 104.074 103.383 103.884 103.043C103.694 102.704 103.596 102.321 103.598 101.932C103.599 101.771 103.618 101.61 103.653 101.452C103.664 101.394 103.663 101.334 103.649 101.276C103.636 101.218 103.611 101.164 103.575 101.116C103.54 101.069 103.495 101.029 103.443 101C103.391 100.971 103.334 100.953 103.275 100.947C103.1 100.93 102.927 100.901 102.757 100.859C102.28 100.687 101.85 100.407 101.5 100.04C101.151 99.6723 100.893 99.2284 100.746 98.7434C100.034 96.3977 101.856 93.9031 104.112 93.3473C103.445 92.1638 102.558 91.2074 102.205 89.8354C101.852 88.4633 102.064 87.0477 103.107 86.029C104.734 84.4482 107.481 84.953 108.78 86.6983C107.904 85.3747 108.239 83.5755 109.235 82.4221C110.441 81.0294 112.782 80.7333 114.419 81.4499C115.198 81.7961 115.697 82.5086 116.228 83.1371C117.305 80.1259 121.52 80.1224 123.757 81.7104C124.92 82.5477 125.668 84.0605 125.291 85.437C125.092 86.1348 125.453 86.5539 126.184 86.2349C126.915 85.916 127.576 85.4767 128.459 85.576C131.517 85.9115 133.673 90.1086 131.365 92.5054C131.124 92.7589 130.583 93.0234 130.461 93.3662C130.197 94.0854 131.821 94.2787 132.253 94.4652C136.045 96.0733 135.183 103.891 130.537 104.032C130.674 104.698 130.988 105.436 130.935 106.122C130.829 107.574 129.796 108.358 128.398 108.398C128.431 108.731 128.363 109.065 128.203 109.358C128.042 109.651 127.797 109.888 127.499 110.039C126.749 110.435 125.523 110.337 124.961 109.641C124.062 108.548 124.994 107.123 125.454 106.083C126.132 104.561 126.47 102.918 126.781 101.286C127.065 99.9349 127.249 98.5644 127.334 97.1859L127.334 97.1283" stroke="black" stroke-width="0.84164" stroke-miterlimit="10" />
  <path d="M12.8149 208.26L61.6016 208.442" stroke="black" stroke-width="0.84164" stroke-miterlimit="10" />
  <path d="M184.364 208.899L228.865 209.065" stroke="black" stroke-width="0.84164" stroke-miterlimit="10" />
</svg>